<svg xmlns="http://www.w3.org/2000/svg" xmlns:xlink="http://www.w3.org/1999/xlink" width="500" zoomAndPan="magnify" viewBox="0 0 375 374.999991" height="500" preserveAspectRatio="xMidYMid meet" version="1.2"><defs><filter x="0%" y="0%" width="100%" filterUnits="objectBoundingBox" id="5be57c2f6b" height="100%"><feColorMatrix values="0 0 0 0 1 0 0 0 0 1 0 0 0 0 1 0 0 0 1 0" type="matrix" in="SourceGraphic"/></filter><clipPath id="e307e169da"><path d="M 0.398438 0.5 L 19.238281 0.5 L 19.238281 17 L 0.398438 17 Z M 0.398438 0.5 "/></clipPath><clipPath id="af90ca5911"><rect x="0" width="20" y="0" height="18"/></clipPath><clipPath id="24b24a9813"><path d="M 0.101562 0.222656 L 5 0.222656 L 5 0.972656 L 0.101562 0.972656 Z M 0.101562 0.222656 "/></clipPath><clipPath id="f4287c7b5f"><path d="M 7 0.222656 L 13 0.222656 L 13 0.972656 L 7 0.972656 Z M 7 0.222656 "/></clipPath><clipPath id="2511ae300d"><path d="M 14 0.222656 L 20 0.222656 L 20 0.972656 L 14 0.972656 Z M 14 0.222656 "/></clipPath><clipPath id="fffc03cf88"><path d="M 30 0.222656 L 36 0.222656 L 36 0.972656 L 30 0.972656 Z M 30 0.222656 "/></clipPath><clipPath id="0776986099"><path d="M 38 0.222656 L 44 0.222656 L 44 0.972656 L 38 0.972656 Z M 38 0.222656 "/></clipPath><clipPath id="6ac899ed2e"><path d="M 46 0.222656 L 52 0.222656 L 52 0.972656 L 46 0.972656 Z M 46 0.222656 "/></clipPath><clipPath id="a7bc524119"><path d="M 54 0.222656 L 60 0.222656 L 60 0.972656 L 54 0.972656 Z M 54 0.222656 "/></clipPath><clipPath id="602d45f22c"><path d="M 62 0.222656 L 68 0.222656 L 68 0.972656 L 62 0.972656 Z M 62 0.222656 "/></clipPath><clipPath id="23a30f3564"><path d="M 78 0.222656 L 84 0.222656 L 84 0.972656 L 78 0.972656 Z M 78 0.222656 "/></clipPath><clipPath id="2aa75fa722"><path d="M 87 0.222656 L 93 0.222656 L 93 0.972656 L 87 0.972656 Z M 87 0.222656 "/></clipPath><clipPath id="6bda14605d"><path d="M 95 0.222656 L 102 0.222656 L 102 0.972656 L 95 0.972656 Z M 95 0.222656 "/></clipPath><clipPath id="b252265c82"><path d="M 104 0.222656 L 111 0.222656 L 111 0.972656 L 104 0.972656 Z M 104 0.222656 "/></clipPath><clipPath id="02984f8842"><path d="M 120 0.222656 L 126 0.222656 L 126 0.972656 L 120 0.972656 Z M 120 0.222656 "/></clipPath><clipPath id="e07f2f862b"><path d="M 127 0.222656 L 134 0.222656 L 134 0.972656 L 127 0.972656 Z M 127 0.222656 "/></clipPath><clipPath id="72b5c28fce"><path d="M 136 0.222656 L 142 0.222656 L 142 0.972656 L 136 0.972656 Z M 136 0.222656 "/></clipPath><clipPath id="75a74aefad"><path d="M 151 0.222656 L 156 0.222656 L 156 0.972656 L 151 0.972656 Z M 151 0.222656 "/></clipPath><clipPath id="b5c32ef994"><path d="M 158 0.222656 L 164 0.222656 L 164 0.972656 L 158 0.972656 Z M 158 0.222656 "/></clipPath><clipPath id="b283e5c4c7"><path d="M 165 0.222656 L 171 0.222656 L 171 0.972656 L 165 0.972656 Z M 165 0.222656 "/></clipPath><clipPath id="0557d62a30"><path d="M 173 0.222656 L 179 0.222656 L 179 0.972656 L 173 0.972656 Z M 173 0.222656 "/></clipPath><clipPath id="1f8e700b20"><path d="M 187 0.222656 L 193 0.222656 L 193 0.972656 L 187 0.972656 Z M 187 0.222656 "/></clipPath><clipPath id="15ec10bad9"><path d="M 194 0.222656 L 200 0.222656 L 200 0.972656 L 194 0.972656 Z M 194 0.222656 "/></clipPath><clipPath id="516cd554f8"><path d="M 203 0.222656 L 209.351562 0.222656 L 209.351562 0.972656 L 203 0.972656 Z M 203 0.222656 "/></clipPath><clipPath id="e050c4036a"><path d="M 181 0.222656 L 186 0.222656 L 186 0.972656 L 181 0.972656 Z M 181 0.222656 "/></clipPath><clipPath id="55a8e4cf5a"><path d="M 143 0.222656 L 149 0.222656 L 149 0.972656 L 143 0.972656 Z M 143 0.222656 "/></clipPath><clipPath id="5bbcd992d8"><path d="M 113 0.222656 L 119 0.222656 L 119 0.972656 L 113 0.972656 Z M 113 0.222656 "/></clipPath><clipPath id="667cc57e93"><path d="M 70 0.222656 L 76 0.222656 L 76 0.972656 L 70 0.972656 Z M 70 0.222656 "/></clipPath><clipPath id="8ef333d7ad"><path d="M 23 0.222656 L 28 0.222656 L 28 0.972656 L 23 0.972656 Z M 23 0.222656 "/></clipPath><clipPath id="06f0344184"><rect x="0" width="210" y="0" height="2"/></clipPath><clipPath id="1c0feebcf9"><path d="M 1 0.640625 L 47.71875 0.640625 L 47.71875 35.441406 L 1 35.441406 Z M 1 0.640625 "/></clipPath><clipPath id="966bbd5234"><rect x="0" width="48" y="0" height="36"/></clipPath></defs><g id="b1dbccf56d"><g style="fill:#163b73;fill-opacity:1;"><g transform="translate(82.851562, 192.374987)"><path style="stroke:none" d="M 11.28125 -14.078125 C 11.414062 -14.035156 11.457031 -13.9375 11.40625 -13.78125 C 11.382812 -13.726562 11.34375 -13.691406 11.28125 -13.671875 C 11.21875 -13.648438 11.15625 -13.644531 11.09375 -13.65625 C 10.238281 -14.019531 9.332031 -14.203125 8.375 -14.203125 C 7.257812 -14.203125 6.273438 -14.015625 5.421875 -13.640625 C 4.578125 -13.273438 3.863281 -12.78125 3.28125 -12.15625 C 2.707031 -11.539062 2.257812 -10.851562 1.9375 -10.09375 C 1.582031 -9.1875 1.40625 -8.234375 1.40625 -7.234375 C 1.40625 -6.234375 1.582031 -5.28125 1.9375 -4.375 C 2.257812 -3.601562 2.707031 -2.90625 3.28125 -2.28125 C 3.863281 -1.664062 4.578125 -1.175781 5.421875 -0.8125 C 6.273438 -0.457031 7.257812 -0.28125 8.375 -0.28125 C 8.84375 -0.28125 9.304688 -0.320312 9.765625 -0.40625 C 10.222656 -0.5 10.664062 -0.632812 11.09375 -0.8125 C 11.15625 -0.84375 11.21875 -0.84375 11.28125 -0.8125 C 11.34375 -0.789062 11.382812 -0.753906 11.40625 -0.703125 C 11.46875 -0.554688 11.425781 -0.445312 11.28125 -0.375 C 10.375 0 9.40625 0.1875 8.375 0.1875 C 7.1875 0.1875 6.144531 -0.00390625 5.25 -0.390625 C 4.351562 -0.785156 3.59375 -1.316406 2.96875 -1.984375 C 2.351562 -2.648438 1.878906 -3.390625 1.546875 -4.203125 C 1.148438 -5.160156 0.953125 -6.171875 0.953125 -7.234375 C 0.953125 -8.304688 1.148438 -9.316406 1.546875 -10.265625 C 1.878906 -11.085938 2.351562 -11.832031 2.96875 -12.5 C 3.59375 -13.164062 4.351562 -13.691406 5.25 -14.078125 C 6.144531 -14.460938 7.1875 -14.65625 8.375 -14.65625 C 9.375 -14.65625 10.34375 -14.460938 11.28125 -14.078125 Z M 10.71875 -3.734375 C 10.851562 -3.804688 10.953125 -3.773438 11.015625 -3.640625 C 11.097656 -3.515625 11.070312 -3.414062 10.9375 -3.34375 C 10.507812 -3.101562 10.097656 -2.9375 9.703125 -2.84375 C 9.316406 -2.75 8.875 -2.703125 8.375 -2.703125 C 7.320312 -2.703125 6.453125 -2.957031 5.765625 -3.46875 C 5.078125 -3.976562 4.585938 -4.613281 4.296875 -5.375 C 4.066406 -5.96875 3.953125 -6.585938 3.953125 -7.234375 C 3.953125 -7.890625 4.066406 -8.503906 4.296875 -9.078125 C 4.585938 -9.835938 5.078125 -10.476562 5.765625 -11 C 6.453125 -11.519531 7.320312 -11.78125 8.375 -11.78125 C 8.875 -11.78125 9.316406 -11.734375 9.703125 -11.640625 C 10.097656 -11.546875 10.507812 -11.378906 10.9375 -11.140625 C 11.0625 -11.054688 11.085938 -10.945312 11.015625 -10.8125 C 10.953125 -10.695312 10.851562 -10.671875 10.71875 -10.734375 C 10.332031 -10.953125 9.957031 -11.101562 9.59375 -11.1875 C 9.238281 -11.269531 8.832031 -11.3125 8.375 -11.3125 C 7.414062 -11.3125 6.632812 -11.078125 6.03125 -10.609375 C 5.425781 -10.148438 4.988281 -9.585938 4.71875 -8.921875 C 4.507812 -8.390625 4.40625 -7.828125 4.40625 -7.234375 C 4.40625 -6.640625 4.507812 -6.078125 4.71875 -5.546875 C 4.988281 -4.859375 5.425781 -4.285156 6.03125 -3.828125 C 6.632812 -3.367188 7.414062 -3.140625 8.375 -3.140625 C 8.832031 -3.140625 9.238281 -3.1875 9.59375 -3.28125 C 9.957031 -3.375 10.332031 -3.523438 10.71875 -3.734375 Z M 10.71875 -3.734375 "/></g></g><g style="fill:#163b73;fill-opacity:1;"><g transform="translate(94.96678, 192.374987)"><path style="stroke:none" d="M 2.0625 0 C 2.0625 0.144531 1.976562 0.21875 1.8125 0.21875 C 1.664062 0.21875 1.59375 0.144531 1.59375 0 L 1.59375 -14.296875 C 1.59375 -14.441406 1.664062 -14.515625 1.8125 -14.515625 C 1.976562 -14.515625 2.0625 -14.441406 2.0625 -14.296875 Z M 4.4375 -14.296875 C 4.4375 -14.441406 4.519531 -14.515625 4.6875 -14.515625 C 4.84375 -14.515625 4.921875 -14.441406 4.921875 -14.296875 L 4.921875 -8.8125 L 8.734375 -8.8125 L 8.734375 -14.296875 C 8.734375 -14.441406 8.804688 -14.515625 8.953125 -14.515625 C 9.117188 -14.515625 9.203125 -14.441406 9.203125 -14.296875 L 9.203125 -8.578125 C 9.203125 -8.421875 9.117188 -8.34375 8.953125 -8.34375 L 4.6875 -8.34375 C 4.625 -8.34375 4.566406 -8.367188 4.515625 -8.421875 C 4.460938 -8.472656 4.4375 -8.523438 4.4375 -8.578125 Z M 11.59375 -14.296875 C 11.59375 -14.441406 11.664062 -14.515625 11.8125 -14.515625 C 11.976562 -14.515625 12.0625 -14.441406 12.0625 -14.296875 L 12.0625 0 C 12.0625 0.144531 11.976562 0.21875 11.8125 0.21875 C 11.664062 0.21875 11.59375 0.144531 11.59375 0 Z M 9.203125 0 C 9.203125 0.144531 9.117188 0.21875 8.953125 0.21875 C 8.804688 0.21875 8.734375 0.144531 8.734375 0 L 8.734375 -5.5 L 4.921875 -5.5 L 4.921875 0 C 4.921875 0.144531 4.84375 0.21875 4.6875 0.21875 C 4.519531 0.21875 4.4375 0.144531 4.4375 0 L 4.4375 -5.71875 C 4.4375 -5.875 4.519531 -5.953125 4.6875 -5.953125 L 8.953125 -5.953125 C 9.117188 -5.953125 9.203125 -5.875 9.203125 -5.71875 Z M 9.203125 0 "/></g></g><g style="fill:#163b73;fill-opacity:1;"><g transform="translate(108.641382, 192.374987)"><path style="stroke:none" d="M 16.140625 -9.484375 C 16.171875 -9.429688 16.164062 -9.367188 16.125 -9.296875 C 16.09375 -9.234375 16.046875 -9.195312 15.984375 -9.1875 C 15.816406 -9.144531 15.71875 -9.195312 15.6875 -9.34375 C 15.363281 -10.34375 14.851562 -11.21875 14.15625 -11.96875 C 13.46875 -12.71875 12.65625 -13.300781 11.71875 -13.71875 C 10.78125 -14.132812 9.785156 -14.34375 8.734375 -14.34375 C 7.328125 -14.34375 6.082031 -14.035156 5 -13.421875 C 3.914062 -12.804688 3.070312 -11.957031 2.46875 -10.875 C 1.863281 -9.800781 1.5625 -8.570312 1.5625 -7.1875 C 1.5625 -5.789062 1.863281 -4.550781 2.46875 -3.46875 C 3.070312 -2.394531 3.914062 -1.546875 5 -0.921875 C 6.082031 -0.304688 7.328125 0 8.734375 0 C 9.785156 0 10.78125 -0.207031 11.71875 -0.625 C 12.65625 -1.050781 13.46875 -1.640625 14.15625 -2.390625 C 14.851562 -3.140625 15.363281 -4.015625 15.6875 -5.015625 C 15.71875 -5.160156 15.816406 -5.21875 15.984375 -5.1875 C 16.140625 -5.125 16.191406 -5.019531 16.140625 -4.875 C 15.804688 -3.8125 15.265625 -2.875 14.515625 -2.0625 C 13.773438 -1.257812 12.90625 -0.632812 11.90625 -0.1875 C 10.914062 0.257812 9.859375 0.484375 8.734375 0.484375 C 7.609375 0.484375 6.578125 0.296875 5.640625 -0.078125 C 4.703125 -0.460938 3.894531 -1 3.21875 -1.6875 C 2.539062 -2.375 2.015625 -3.179688 1.640625 -4.109375 C 1.273438 -5.046875 1.09375 -6.070312 1.09375 -7.1875 C 1.09375 -8.289062 1.273438 -9.304688 1.640625 -10.234375 C 2.015625 -11.160156 2.539062 -11.96875 3.21875 -12.65625 C 3.894531 -13.34375 4.703125 -13.875 5.640625 -14.25 C 6.578125 -14.625 7.609375 -14.8125 8.734375 -14.8125 C 9.859375 -14.8125 10.914062 -14.585938 11.90625 -14.140625 C 12.90625 -13.703125 13.773438 -13.082031 14.515625 -12.28125 C 15.265625 -11.476562 15.804688 -10.546875 16.140625 -9.484375 Z M 4.734375 -4.84375 C 4.710938 -4.894531 4.707031 -4.953125 4.71875 -5.015625 C 4.726562 -5.085938 4.757812 -5.132812 4.8125 -5.15625 C 4.96875 -5.238281 5.082031 -5.210938 5.15625 -5.078125 C 5.519531 -4.421875 6.019531 -3.898438 6.65625 -3.515625 C 7.300781 -3.140625 7.992188 -2.953125 8.734375 -2.953125 C 9.515625 -2.953125 10.21875 -3.144531 10.84375 -3.53125 C 11.46875 -3.925781 11.960938 -4.441406 12.328125 -5.078125 C 12.691406 -5.722656 12.875 -6.425781 12.875 -7.1875 C 12.875 -7.957031 12.691406 -8.65625 12.328125 -9.28125 C 11.960938 -9.914062 11.46875 -10.425781 10.84375 -10.8125 C 10.21875 -11.207031 9.515625 -11.40625 8.734375 -11.40625 C 7.992188 -11.40625 7.300781 -11.210938 6.65625 -10.828125 C 6.019531 -10.453125 5.519531 -9.9375 5.15625 -9.28125 C 5.09375 -9.132812 4.976562 -9.101562 4.8125 -9.1875 C 4.695312 -9.269531 4.671875 -9.378906 4.734375 -9.515625 C 5.148438 -10.234375 5.710938 -10.800781 6.421875 -11.21875 C 7.140625 -11.644531 7.910156 -11.859375 8.734375 -11.859375 C 9.609375 -11.859375 10.390625 -11.644531 11.078125 -11.21875 C 11.773438 -10.789062 12.328125 -10.222656 12.734375 -9.515625 C 13.148438 -8.804688 13.359375 -8.03125 13.359375 -7.1875 C 13.359375 -6.332031 13.148438 -5.546875 12.734375 -4.828125 C 12.328125 -4.117188 11.773438 -3.550781 11.078125 -3.125 C 10.390625 -2.695312 9.609375 -2.484375 8.734375 -2.484375 C 7.910156 -2.484375 7.140625 -2.695312 6.421875 -3.125 C 5.710938 -3.550781 5.148438 -4.125 4.734375 -4.84375 Z M 4.734375 -4.84375 "/></g></g><g style="fill:#163b73;fill-opacity:1;"><g transform="translate(125.874581, 192.374987)"><path style="stroke:none" d="M 14.15625 -2.734375 C 14.664062 -3.367188 15.054688 -4.054688 15.328125 -4.796875 C 15.597656 -5.546875 15.734375 -6.328125 15.734375 -7.140625 C 15.734375 -8.109375 15.546875 -9.015625 15.171875 -9.859375 C 14.804688 -10.710938 14.296875 -11.457031 13.640625 -12.09375 C 12.984375 -12.738281 12.226562 -13.238281 11.375 -13.59375 C 10.519531 -13.957031 9.613281 -14.140625 8.65625 -14.140625 C 7.6875 -14.140625 6.773438 -13.957031 5.921875 -13.59375 C 5.066406 -13.238281 4.3125 -12.738281 3.65625 -12.09375 C 3.007812 -11.457031 2.5 -10.710938 2.125 -9.859375 C 1.757812 -9.015625 1.578125 -8.109375 1.578125 -7.140625 C 1.578125 -6.171875 1.757812 -5.257812 2.125 -4.40625 C 2.5 -3.5625 3.007812 -2.820312 3.65625 -2.1875 C 4.3125 -1.550781 5.066406 -1.050781 5.921875 -0.6875 C 6.773438 -0.332031 7.6875 -0.15625 8.65625 -0.15625 C 9.175781 -0.15625 9.6875 -0.207031 10.1875 -0.3125 C 10.695312 -0.425781 11.1875 -0.59375 11.65625 -0.8125 C 11.757812 -0.882812 11.851562 -0.910156 11.9375 -0.890625 C 12.03125 -0.878906 12.117188 -0.816406 12.203125 -0.703125 L 12.578125 -0.15625 C 12.671875 -0.0507812 12.648438 0.0507812 12.515625 0.15625 C 12.398438 0.238281 12.296875 0.21875 12.203125 0.09375 L 11.859375 -0.375 C 11.367188 -0.164062 10.847656 0 10.296875 0.125 C 9.753906 0.25 9.207031 0.3125 8.65625 0.3125 C 7.632812 0.3125 6.664062 0.117188 5.75 -0.265625 C 4.832031 -0.648438 4.023438 -1.179688 3.328125 -1.859375 C 2.628906 -2.535156 2.082031 -3.320312 1.6875 -4.21875 C 1.289062 -5.125 1.09375 -6.097656 1.09375 -7.140625 C 1.09375 -8.179688 1.289062 -9.148438 1.6875 -10.046875 C 2.082031 -10.953125 2.628906 -11.742188 3.328125 -12.421875 C 4.023438 -13.109375 4.832031 -13.640625 5.75 -14.015625 C 6.664062 -14.398438 7.632812 -14.59375 8.65625 -14.59375 C 9.695312 -14.59375 10.671875 -14.398438 11.578125 -14.015625 C 12.484375 -13.640625 13.28125 -13.109375 13.96875 -12.421875 C 14.664062 -11.742188 15.210938 -10.953125 15.609375 -10.046875 C 16.003906 -9.148438 16.203125 -8.179688 16.203125 -7.140625 C 16.203125 -6.273438 16.050781 -5.4375 15.75 -4.625 C 15.445312 -3.8125 15.023438 -3.070312 14.484375 -2.40625 L 16.0625 -0.15625 C 16.15625 -0.0507812 16.132812 0.0507812 16 0.15625 C 15.875 0.226562 15.757812 0.207031 15.65625 0.09375 L 14.0625 -2.21875 C 13.988281 -2.320312 13.96875 -2.414062 14 -2.5 C 14.03125 -2.582031 14.082031 -2.660156 14.15625 -2.734375 Z M 11.21875 -6.28125 C 11.125 -6.382812 11.144531 -6.488281 11.28125 -6.59375 C 11.414062 -6.675781 11.515625 -6.660156 11.578125 -6.546875 L 12.296875 -5.515625 C 12.515625 -6.023438 12.625 -6.566406 12.625 -7.140625 C 12.625 -7.867188 12.445312 -8.539062 12.09375 -9.15625 C 11.738281 -9.769531 11.265625 -10.265625 10.671875 -10.640625 C 10.078125 -11.015625 9.40625 -11.203125 8.65625 -11.203125 C 7.914062 -11.203125 7.242188 -11.015625 6.640625 -10.640625 C 6.035156 -10.265625 5.554688 -9.769531 5.203125 -9.15625 C 4.859375 -8.539062 4.6875 -7.867188 4.6875 -7.140625 C 4.6875 -6.410156 4.859375 -5.738281 5.203125 -5.125 C 5.554688 -4.507812 6.035156 -4.015625 6.640625 -3.640625 C 7.242188 -3.273438 7.914062 -3.09375 8.65625 -3.09375 C 8.914062 -3.09375 9.164062 -3.113281 9.40625 -3.15625 L 9.84375 -3.28125 L 7.765625 -6.28125 C 7.671875 -6.394531 7.6875 -6.5 7.8125 -6.59375 C 7.945312 -6.675781 8.050781 -6.660156 8.125 -6.546875 L 10.375 -3.296875 C 10.425781 -3.242188 10.4375 -3.179688 10.40625 -3.109375 C 10.382812 -3.035156 10.34375 -2.984375 10.28125 -2.953125 C 10.15625 -2.898438 10.023438 -2.847656 9.890625 -2.796875 C 9.765625 -2.753906 9.628906 -2.722656 9.484375 -2.703125 C 9.347656 -2.691406 9.210938 -2.675781 9.078125 -2.65625 C 8.941406 -2.632812 8.800781 -2.625 8.65625 -2.625 C 7.832031 -2.625 7.082031 -2.828125 6.40625 -3.234375 C 5.738281 -3.648438 5.207031 -4.203125 4.8125 -4.890625 C 4.414062 -5.578125 4.21875 -6.328125 4.21875 -7.140625 C 4.21875 -7.960938 4.414062 -8.710938 4.8125 -9.390625 C 5.207031 -10.078125 5.738281 -10.625 6.40625 -11.03125 C 7.082031 -11.4375 7.832031 -11.640625 8.65625 -11.640625 C 9.488281 -11.640625 10.238281 -11.4375 10.90625 -11.03125 C 11.582031 -10.625 12.113281 -10.078125 12.5 -9.390625 C 12.894531 -8.710938 13.09375 -7.960938 13.09375 -7.140625 C 13.09375 -6.335938 12.910156 -5.625 12.546875 -5 C 12.503906 -4.90625 12.4375 -4.859375 12.34375 -4.859375 C 12.257812 -4.859375 12.191406 -4.898438 12.140625 -4.984375 Z M 11.21875 -6.28125 "/></g></g><g style="fill:#163b73;fill-opacity:1;"><g transform="translate(143.147765, 192.374987)"><path style="stroke:none" d="M 11.984375 -14.28125 C 11.984375 -14.425781 12.0625 -14.5 12.21875 -14.5 C 12.363281 -14.5 12.4375 -14.425781 12.4375 -14.28125 L 12.4375 -5.0625 C 12.4375 -3.976562 12.191406 -3.03125 11.703125 -2.21875 C 11.222656 -1.414062 10.570312 -0.789062 9.75 -0.34375 C 8.925781 0.09375 8.003906 0.3125 6.984375 0.3125 C 5.941406 0.3125 5.003906 0.0820312 4.171875 -0.375 C 3.347656 -0.832031 2.695312 -1.460938 2.21875 -2.265625 C 1.75 -3.078125 1.515625 -4.007812 1.515625 -5.0625 L 1.515625 -14.28125 C 1.515625 -14.425781 1.597656 -14.5 1.765625 -14.5 C 1.910156 -14.5 1.984375 -14.425781 1.984375 -14.28125 L 1.984375 -5.0625 C 1.984375 -4.082031 2.195312 -3.222656 2.625 -2.484375 C 3.0625 -1.742188 3.65625 -1.164062 4.40625 -0.75 C 5.164062 -0.34375 6.023438 -0.140625 6.984375 -0.140625 C 7.910156 -0.140625 8.75 -0.34375 9.5 -0.75 C 10.257812 -1.15625 10.863281 -1.722656 11.3125 -2.453125 C 11.757812 -3.191406 11.984375 -4.0625 11.984375 -5.0625 Z M 4.421875 -14.28125 C 4.421875 -14.425781 4.492188 -14.5 4.640625 -14.5 C 4.785156 -14.5 4.859375 -14.425781 4.859375 -14.28125 L 4.859375 -5.21875 C 4.859375 -4.59375 5.054688 -4.078125 5.453125 -3.671875 C 5.859375 -3.265625 6.367188 -3.0625 6.984375 -3.0625 C 7.609375 -3.0625 8.113281 -3.265625 8.5 -3.671875 C 8.894531 -4.078125 9.09375 -4.59375 9.09375 -5.21875 L 9.09375 -14.28125 C 9.09375 -14.425781 9.164062 -14.5 9.3125 -14.5 C 9.476562 -14.5 9.5625 -14.425781 9.5625 -14.28125 L 9.5625 -5.21875 C 9.5625 -4.457031 9.316406 -3.832031 8.828125 -3.34375 C 8.335938 -2.863281 7.722656 -2.625 6.984375 -2.625 C 6.234375 -2.625 5.617188 -2.863281 5.140625 -3.34375 C 4.660156 -3.832031 4.421875 -4.457031 4.421875 -5.21875 Z M 4.421875 -14.28125 "/></g></g><g style="fill:#163b73;fill-opacity:1;"><g transform="translate(157.142241, 192.374987)"><path style="stroke:none" d="M 9.234375 -0.234375 C 9.378906 -0.234375 9.453125 -0.15625 9.453125 0 C 9.453125 0.144531 9.378906 0.21875 9.234375 0.21875 L 1.84375 0.21875 C 1.675781 0.21875 1.59375 0.144531 1.59375 0 L 1.59375 -14.296875 C 1.59375 -14.441406 1.675781 -14.515625 1.84375 -14.515625 L 9.234375 -14.515625 C 9.378906 -14.515625 9.453125 -14.441406 9.453125 -14.296875 C 9.453125 -14.140625 9.378906 -14.0625 9.234375 -14.0625 L 2.0625 -14.0625 L 2.0625 -0.234375 Z M 9.234375 -11.65625 C 9.378906 -11.65625 9.453125 -11.582031 9.453125 -11.4375 C 9.453125 -11.28125 9.378906 -11.203125 9.234375 -11.203125 L 4.921875 -11.203125 L 4.921875 -8.8125 L 7.90625 -8.8125 C 8.0625 -8.8125 8.140625 -8.734375 8.140625 -8.578125 C 8.140625 -8.421875 8.0625 -8.34375 7.90625 -8.34375 L 4.703125 -8.34375 C 4.535156 -8.34375 4.453125 -8.421875 4.453125 -8.578125 L 4.453125 -11.4375 C 4.453125 -11.582031 4.535156 -11.65625 4.703125 -11.65625 Z M 7.90625 -5.953125 C 8.0625 -5.953125 8.140625 -5.875 8.140625 -5.71875 C 8.140625 -5.570312 8.0625 -5.5 7.90625 -5.5 L 4.921875 -5.5 L 4.921875 -3.09375 L 9.234375 -3.09375 C 9.378906 -3.09375 9.453125 -3.015625 9.453125 -2.859375 C 9.453125 -2.710938 9.378906 -2.640625 9.234375 -2.640625 L 4.703125 -2.640625 C 4.535156 -2.640625 4.453125 -2.710938 4.453125 -2.859375 L 4.453125 -5.71875 C 4.453125 -5.875 4.535156 -5.953125 4.703125 -5.953125 Z M 7.90625 -5.953125 "/></g></g><g style="fill:#163b73;fill-opacity:1;"><g transform="translate(167.678083, 192.374987)"><path style="stroke:none" d=""/></g></g><g style="fill:#163b73;fill-opacity:1;"><g transform="translate(173.35584, 192.374987)"><path style="stroke:none" d="M 6.09375 -14.515625 C 7.28125 -14.515625 8.320312 -14.320312 9.21875 -13.9375 C 10.113281 -13.550781 10.867188 -13.03125 11.484375 -12.375 C 12.097656 -11.726562 12.5625 -10.988281 12.875 -10.15625 C 13.257812 -9.207031 13.453125 -8.203125 13.453125 -7.140625 C 13.453125 -6.085938 13.257812 -5.085938 12.875 -4.140625 C 12.5625 -3.328125 12.097656 -2.585938 11.484375 -1.921875 C 10.867188 -1.265625 10.113281 -0.742188 9.21875 -0.359375 C 8.320312 0.0234375 7.28125 0.21875 6.09375 0.21875 L 4.65625 0.21875 C 4.5 0.21875 4.421875 0.144531 4.421875 0 C 4.421875 -0.15625 4.5 -0.234375 4.65625 -0.234375 L 6.09375 -0.234375 C 7.207031 -0.234375 8.179688 -0.410156 9.015625 -0.765625 C 9.859375 -1.128906 10.566406 -1.625 11.140625 -2.25 C 11.710938 -2.875 12.148438 -3.5625 12.453125 -4.3125 C 12.816406 -5.207031 13 -6.148438 13 -7.140625 C 13 -8.140625 12.816406 -9.085938 12.453125 -9.984375 C 12.148438 -10.753906 11.710938 -11.445312 11.140625 -12.0625 C 10.566406 -12.675781 9.859375 -13.160156 9.015625 -13.515625 C 8.179688 -13.878906 7.207031 -14.0625 6.09375 -14.0625 L 2.0625 -14.0625 L 2.0625 0 C 2.0625 0.144531 1.976562 0.21875 1.8125 0.21875 C 1.664062 0.21875 1.59375 0.144531 1.59375 0 L 1.59375 -14.296875 C 1.59375 -14.441406 1.664062 -14.515625 1.8125 -14.515625 Z M 4.921875 -5.71875 C 4.921875 -5.570312 4.84375 -5.5 4.6875 -5.5 C 4.519531 -5.5 4.4375 -5.570312 4.4375 -5.71875 L 4.4375 -11.4375 C 4.4375 -11.601562 4.519531 -11.6875 4.6875 -11.6875 L 6.09375 -11.6875 C 7.15625 -11.6875 8.019531 -11.425781 8.6875 -10.90625 C 9.363281 -10.382812 9.847656 -9.75 10.140625 -9 C 10.367188 -8.414062 10.484375 -7.800781 10.484375 -7.15625 C 10.484375 -6.519531 10.367188 -5.90625 10.140625 -5.3125 C 9.847656 -4.5625 9.363281 -3.925781 8.6875 -3.40625 C 8.019531 -2.882812 7.15625 -2.625 6.09375 -2.625 L 4.6875 -2.625 C 4.625 -2.625 4.566406 -2.648438 4.515625 -2.703125 C 4.460938 -2.753906 4.4375 -2.804688 4.4375 -2.859375 C 4.4375 -2.921875 4.460938 -2.972656 4.515625 -3.015625 C 4.566406 -3.066406 4.625 -3.09375 4.6875 -3.09375 L 6.09375 -3.09375 C 7.039062 -3.09375 7.8125 -3.320312 8.40625 -3.78125 C 9.007812 -4.25 9.445312 -4.816406 9.71875 -5.484375 C 9.914062 -6.015625 10.015625 -6.570312 10.015625 -7.15625 C 10.015625 -7.75 9.914062 -8.300781 9.71875 -8.8125 C 9.445312 -9.476562 9.007812 -10.046875 8.40625 -10.515625 C 7.8125 -10.984375 7.039062 -11.21875 6.09375 -11.21875 L 4.921875 -11.21875 Z M 4.921875 -5.71875 "/></g></g><g style="fill:#163b73;fill-opacity:1;"><g transform="translate(187.910103, 192.374987)"><path style="stroke:none" d="M 9.234375 -0.234375 C 9.378906 -0.234375 9.453125 -0.15625 9.453125 0 C 9.453125 0.144531 9.378906 0.21875 9.234375 0.21875 L 1.84375 0.21875 C 1.675781 0.21875 1.59375 0.144531 1.59375 0 L 1.59375 -14.296875 C 1.59375 -14.441406 1.675781 -14.515625 1.84375 -14.515625 L 9.234375 -14.515625 C 9.378906 -14.515625 9.453125 -14.441406 9.453125 -14.296875 C 9.453125 -14.140625 9.378906 -14.0625 9.234375 -14.0625 L 2.0625 -14.0625 L 2.0625 -0.234375 Z M 9.234375 -11.65625 C 9.378906 -11.65625 9.453125 -11.582031 9.453125 -11.4375 C 9.453125 -11.28125 9.378906 -11.203125 9.234375 -11.203125 L 4.921875 -11.203125 L 4.921875 -8.8125 L 7.90625 -8.8125 C 8.0625 -8.8125 8.140625 -8.734375 8.140625 -8.578125 C 8.140625 -8.421875 8.0625 -8.34375 7.90625 -8.34375 L 4.703125 -8.34375 C 4.535156 -8.34375 4.453125 -8.421875 4.453125 -8.578125 L 4.453125 -11.4375 C 4.453125 -11.582031 4.535156 -11.65625 4.703125 -11.65625 Z M 7.90625 -5.953125 C 8.0625 -5.953125 8.140625 -5.875 8.140625 -5.71875 C 8.140625 -5.570312 8.0625 -5.5 7.90625 -5.5 L 4.921875 -5.5 L 4.921875 -3.09375 L 9.234375 -3.09375 C 9.378906 -3.09375 9.453125 -3.015625 9.453125 -2.859375 C 9.453125 -2.710938 9.378906 -2.640625 9.234375 -2.640625 L 4.703125 -2.640625 C 4.535156 -2.640625 4.453125 -2.710938 4.453125 -2.859375 L 4.453125 -5.71875 C 4.453125 -5.875 4.535156 -5.953125 4.703125 -5.953125 Z M 7.90625 -5.953125 "/></g></g><g style="fill:#163b73;fill-opacity:1;"><g transform="translate(198.445945, 192.374987)"><path style="stroke:none" d=""/></g></g><g style="fill:#163b73;fill-opacity:1;"><g transform="translate(204.123702, 192.374987)"><path style="stroke:none" d="M 9 -13.984375 C 9.144531 -13.929688 9.191406 -13.832031 9.140625 -13.6875 C 9.085938 -13.550781 8.988281 -13.507812 8.84375 -13.5625 C 8.132812 -13.8125 7.398438 -13.984375 6.640625 -14.078125 C 5.890625 -14.179688 5.171875 -14.148438 4.484375 -13.984375 C 3.796875 -13.816406 3.1875 -13.445312 2.65625 -12.875 C 2.226562 -12.425781 1.925781 -11.867188 1.75 -11.203125 C 1.570312 -10.546875 1.554688 -9.878906 1.703125 -9.203125 C 1.847656 -8.535156 2.207031 -7.941406 2.78125 -7.421875 C 3.269531 -6.992188 3.769531 -6.671875 4.28125 -6.453125 C 4.800781 -6.234375 5.285156 -6.039062 5.734375 -5.875 C 6.179688 -5.707031 6.546875 -5.503906 6.828125 -5.265625 C 7.117188 -5.035156 7.273438 -4.6875 7.296875 -4.21875 C 7.328125 -3.75 7.164062 -3.359375 6.8125 -3.046875 C 6.457031 -2.742188 6.046875 -2.582031 5.578125 -2.5625 C 4.953125 -2.519531 4.257812 -2.585938 3.5 -2.765625 C 2.75 -2.953125 2.054688 -3.273438 1.421875 -3.734375 C 1.285156 -3.828125 1.265625 -3.929688 1.359375 -4.046875 C 1.453125 -4.171875 1.5625 -4.195312 1.6875 -4.125 C 2 -3.90625 2.375 -3.703125 2.8125 -3.515625 C 3.257812 -3.328125 3.71875 -3.1875 4.1875 -3.09375 C 4.664062 -3 5.109375 -2.972656 5.515625 -3.015625 C 5.929688 -3.054688 6.265625 -3.191406 6.515625 -3.421875 C 6.753906 -3.648438 6.859375 -3.914062 6.828125 -4.21875 C 6.804688 -4.53125 6.679688 -4.789062 6.453125 -5 C 6.273438 -5.15625 5.976562 -5.3125 5.5625 -5.46875 C 5.144531 -5.625 4.6875 -5.8125 4.1875 -6.03125 C 3.6875 -6.25 3.203125 -6.523438 2.734375 -6.859375 C 2.273438 -7.203125 1.894531 -7.628906 1.59375 -8.140625 C 1.289062 -8.648438 1.140625 -9.273438 1.140625 -10.015625 C 1.140625 -11.054688 1.382812 -11.941406 1.875 -12.671875 C 2.375 -13.398438 3.050781 -13.929688 3.90625 -14.265625 C 4.757812 -14.597656 5.71875 -14.691406 6.78125 -14.546875 C 7.0625 -14.503906 7.382812 -14.4375 7.75 -14.34375 C 8.113281 -14.257812 8.53125 -14.140625 9 -13.984375 Z M 1.0625 -0.734375 C 0.925781 -0.804688 0.894531 -0.90625 0.96875 -1.03125 C 1.050781 -1.164062 1.160156 -1.203125 1.296875 -1.140625 C 1.867188 -0.847656 2.488281 -0.609375 3.15625 -0.421875 C 3.820312 -0.234375 4.488281 -0.128906 5.15625 -0.109375 C 5.820312 -0.0976562 6.453125 -0.191406 7.046875 -0.390625 C 7.648438 -0.585938 8.175781 -0.90625 8.625 -1.34375 C 9.070312 -1.8125 9.390625 -2.367188 9.578125 -3.015625 C 9.773438 -3.660156 9.800781 -4.316406 9.65625 -4.984375 C 9.507812 -5.660156 9.148438 -6.257812 8.578125 -6.78125 C 8.085938 -7.25 7.582031 -7.597656 7.0625 -7.828125 C 6.539062 -8.066406 6.054688 -8.269531 5.609375 -8.4375 C 5.160156 -8.601562 4.789062 -8.800781 4.5 -9.03125 C 4.207031 -9.257812 4.046875 -9.601562 4.015625 -10.0625 C 4.003906 -10.53125 4.15625 -10.914062 4.46875 -11.21875 C 4.78125 -11.53125 5.164062 -11.691406 5.625 -11.703125 C 6.53125 -11.753906 7.535156 -11.550781 8.640625 -11.09375 C 8.785156 -11.039062 8.828125 -10.941406 8.765625 -10.796875 C 8.710938 -10.660156 8.609375 -10.625 8.453125 -10.6875 C 8.109375 -10.832031 7.660156 -10.972656 7.109375 -11.109375 C 6.566406 -11.242188 6.0625 -11.285156 5.59375 -11.234375 C 5.300781 -11.203125 5.035156 -11.09375 4.796875 -10.90625 C 4.566406 -10.726562 4.460938 -10.46875 4.484375 -10.125 C 4.484375 -9.789062 4.628906 -9.507812 4.921875 -9.28125 C 5.109375 -9.144531 5.40625 -8.992188 5.8125 -8.828125 C 6.21875 -8.671875 6.671875 -8.476562 7.171875 -8.25 C 7.671875 -8.019531 8.148438 -7.726562 8.609375 -7.375 C 9.066406 -7.03125 9.445312 -6.597656 9.75 -6.078125 C 10.050781 -5.566406 10.203125 -4.953125 10.203125 -4.234375 C 10.203125 -3.328125 10.015625 -2.550781 9.640625 -1.90625 C 9.273438 -1.269531 8.773438 -0.765625 8.140625 -0.390625 C 7.503906 -0.0234375 6.769531 0.195312 5.9375 0.28125 C 5.113281 0.363281 4.25 0.296875 3.34375 0.078125 C 2.976562 -0.00390625 2.601562 -0.109375 2.21875 -0.234375 C 1.84375 -0.367188 1.457031 -0.535156 1.0625 -0.734375 Z M 1.0625 -0.734375 "/></g></g><g style="fill:#163b73;fill-opacity:1;"><g transform="translate(215.119367, 192.374987)"><path style="stroke:none" d="M 0.78125 -0.140625 C 0.738281 0.00390625 0.640625 0.0507812 0.484375 0 C 0.429688 -0.03125 0.390625 -0.0703125 0.359375 -0.125 C 0.328125 -0.1875 0.328125 -0.242188 0.359375 -0.296875 L 6.21875 -14.6875 C 6.257812 -14.789062 6.332031 -14.84375 6.4375 -14.84375 C 6.539062 -14.84375 6.613281 -14.789062 6.65625 -14.6875 L 12.515625 -0.296875 C 12.546875 -0.242188 12.550781 -0.1875 12.53125 -0.125 C 12.507812 -0.0703125 12.46875 -0.03125 12.40625 0 C 12.238281 0.0507812 12.132812 0.00390625 12.09375 -0.140625 L 6.4375 -14 Z M 5.375 -4.1875 C 5.21875 -4.1875 5.140625 -4.257812 5.140625 -4.40625 C 5.140625 -4.550781 5.21875 -4.625 5.375 -4.625 L 7.15625 -4.625 L 6.21875 -6.90625 C 6.164062 -7.050781 6.207031 -7.148438 6.34375 -7.203125 C 6.488281 -7.265625 6.59375 -7.21875 6.65625 -7.0625 L 7.703125 -4.5 C 7.710938 -4.46875 7.71875 -4.4375 7.71875 -4.40625 C 7.71875 -4.257812 7.640625 -4.1875 7.484375 -4.1875 Z M 3.875 -0.140625 C 3.832031 0.00390625 3.738281 0.0507812 3.59375 0 C 3.53125 -0.03125 3.484375 -0.0703125 3.453125 -0.125 C 3.429688 -0.1875 3.429688 -0.242188 3.453125 -0.296875 L 4 -1.59375 C 4.007812 -1.6875 4.082031 -1.734375 4.21875 -1.734375 L 8.65625 -1.734375 C 8.78125 -1.734375 8.851562 -1.6875 8.875 -1.59375 L 9.421875 -0.296875 C 9.441406 -0.242188 9.4375 -0.1875 9.40625 -0.125 C 9.382812 -0.0703125 9.34375 -0.03125 9.28125 0 C 9.144531 0.0390625 9.046875 -0.00390625 8.984375 -0.140625 L 8.5 -1.296875 L 4.359375 -1.296875 Z M 3.875 -0.140625 "/></g></g><g style="fill:#163b73;fill-opacity:1;"><g transform="translate(228.054269, 192.374987)"><path style="stroke:none" d="M 2.078125 0 C 2.078125 0.175781 1.988281 0.265625 1.8125 0.265625 C 1.664062 0.265625 1.59375 0.175781 1.59375 0 L 1.59375 -14.3125 C 1.59375 -14.488281 1.664062 -14.578125 1.8125 -14.578125 L 7.484375 -14.578125 C 8.316406 -14.578125 9.070312 -14.367188 9.75 -13.953125 C 10.425781 -13.546875 10.960938 -13 11.359375 -12.3125 C 11.753906 -11.625 11.953125 -10.859375 11.953125 -10.015625 C 11.953125 -8.953125 11.617188 -8 10.953125 -7.15625 C 11.617188 -6.300781 11.953125 -5.347656 11.953125 -4.296875 C 11.953125 -3.472656 11.753906 -2.710938 11.359375 -2.015625 C 10.960938 -1.328125 10.425781 -0.773438 9.75 -0.359375 C 9.070312 0.0546875 8.316406 0.265625 7.484375 0.265625 L 4.71875 0.265625 C 4.5625 0.265625 4.484375 0.175781 4.484375 0 C 4.484375 -0.144531 4.5625 -0.21875 4.71875 -0.21875 L 7.484375 -0.21875 C 8.222656 -0.21875 8.894531 -0.40625 9.5 -0.78125 C 10.113281 -1.15625 10.597656 -1.648438 10.953125 -2.265625 C 11.304688 -2.890625 11.484375 -3.566406 11.484375 -4.296875 C 11.484375 -5.328125 11.148438 -6.226562 10.484375 -7 C 10.390625 -7.101562 10.390625 -7.203125 10.484375 -7.296875 C 11.148438 -8.066406 11.484375 -8.972656 11.484375 -10.015625 C 11.484375 -10.765625 11.304688 -11.445312 10.953125 -12.0625 C 10.597656 -12.6875 10.113281 -13.179688 9.5 -13.546875 C 8.894531 -13.910156 8.222656 -14.09375 7.484375 -14.09375 L 2.078125 -14.09375 Z M 4.71875 -11.21875 C 4.539062 -11.21875 4.453125 -11.296875 4.453125 -11.453125 C 4.453125 -11.609375 4.539062 -11.6875 4.71875 -11.6875 L 7.21875 -11.6875 C 7.695312 -11.6875 8.101562 -11.523438 8.4375 -11.203125 C 8.769531 -10.878906 8.9375 -10.484375 8.9375 -10.015625 C 8.9375 -9.546875 8.769531 -9.148438 8.4375 -8.828125 C 8.101562 -8.515625 7.695312 -8.359375 7.21875 -8.359375 L 6.40625 -8.359375 C 6.257812 -8.359375 6.1875 -8.429688 6.1875 -8.578125 C 6.1875 -8.734375 6.257812 -8.8125 6.40625 -8.8125 L 7.21875 -8.8125 C 7.5625 -8.8125 7.851562 -8.925781 8.09375 -9.15625 C 8.332031 -9.382812 8.453125 -9.671875 8.453125 -10.015625 C 8.453125 -10.367188 8.332031 -10.65625 8.09375 -10.875 C 7.851562 -11.101562 7.5625 -11.21875 7.21875 -11.21875 Z M 6.40625 -2.625 C 6.257812 -2.625 6.1875 -2.703125 6.1875 -2.859375 C 6.1875 -3.015625 6.257812 -3.09375 6.40625 -3.09375 L 7.21875 -3.09375 C 7.5625 -3.09375 7.851562 -3.207031 8.09375 -3.4375 C 8.332031 -3.664062 8.453125 -3.953125 8.453125 -4.296875 C 8.453125 -4.640625 8.332031 -4.925781 8.09375 -5.15625 C 7.851562 -5.382812 7.5625 -5.5 7.21875 -5.5 L 4.71875 -5.5 C 4.539062 -5.5 4.453125 -5.570312 4.453125 -5.71875 C 4.453125 -5.863281 4.539062 -5.9375 4.71875 -5.9375 L 7.21875 -5.9375 C 7.695312 -5.9375 8.101562 -5.78125 8.4375 -5.46875 C 8.769531 -5.15625 8.9375 -4.765625 8.9375 -4.296875 C 8.9375 -3.816406 8.769531 -3.414062 8.4375 -3.09375 C 8.101562 -2.78125 7.695312 -2.625 7.21875 -2.625 Z M 6.40625 -2.625 "/></g></g><g style="fill:#163b73;fill-opacity:1;"><g transform="translate(240.949184, 192.374987)"><path style="stroke:none" d="M 16.140625 -9.484375 C 16.171875 -9.429688 16.164062 -9.367188 16.125 -9.296875 C 16.09375 -9.234375 16.046875 -9.195312 15.984375 -9.1875 C 15.816406 -9.144531 15.71875 -9.195312 15.6875 -9.34375 C 15.363281 -10.34375 14.851562 -11.21875 14.15625 -11.96875 C 13.46875 -12.71875 12.65625 -13.300781 11.71875 -13.71875 C 10.78125 -14.132812 9.785156 -14.34375 8.734375 -14.34375 C 7.328125 -14.34375 6.082031 -14.035156 5 -13.421875 C 3.914062 -12.804688 3.070312 -11.957031 2.46875 -10.875 C 1.863281 -9.800781 1.5625 -8.570312 1.5625 -7.1875 C 1.5625 -5.789062 1.863281 -4.550781 2.46875 -3.46875 C 3.070312 -2.394531 3.914062 -1.546875 5 -0.921875 C 6.082031 -0.304688 7.328125 0 8.734375 0 C 9.785156 0 10.78125 -0.207031 11.71875 -0.625 C 12.65625 -1.050781 13.46875 -1.640625 14.15625 -2.390625 C 14.851562 -3.140625 15.363281 -4.015625 15.6875 -5.015625 C 15.71875 -5.160156 15.816406 -5.21875 15.984375 -5.1875 C 16.140625 -5.125 16.191406 -5.019531 16.140625 -4.875 C 15.804688 -3.8125 15.265625 -2.875 14.515625 -2.0625 C 13.773438 -1.257812 12.90625 -0.632812 11.90625 -0.1875 C 10.914062 0.257812 9.859375 0.484375 8.734375 0.484375 C 7.609375 0.484375 6.578125 0.296875 5.640625 -0.078125 C 4.703125 -0.460938 3.894531 -1 3.21875 -1.6875 C 2.539062 -2.375 2.015625 -3.179688 1.640625 -4.109375 C 1.273438 -5.046875 1.09375 -6.070312 1.09375 -7.1875 C 1.09375 -8.289062 1.273438 -9.304688 1.640625 -10.234375 C 2.015625 -11.160156 2.539062 -11.96875 3.21875 -12.65625 C 3.894531 -13.34375 4.703125 -13.875 5.640625 -14.25 C 6.578125 -14.625 7.609375 -14.8125 8.734375 -14.8125 C 9.859375 -14.8125 10.914062 -14.585938 11.90625 -14.140625 C 12.90625 -13.703125 13.773438 -13.082031 14.515625 -12.28125 C 15.265625 -11.476562 15.804688 -10.546875 16.140625 -9.484375 Z M 4.734375 -4.84375 C 4.710938 -4.894531 4.707031 -4.953125 4.71875 -5.015625 C 4.726562 -5.085938 4.757812 -5.132812 4.8125 -5.15625 C 4.96875 -5.238281 5.082031 -5.210938 5.15625 -5.078125 C 5.519531 -4.421875 6.019531 -3.898438 6.65625 -3.515625 C 7.300781 -3.140625 7.992188 -2.953125 8.734375 -2.953125 C 9.515625 -2.953125 10.21875 -3.144531 10.84375 -3.53125 C 11.46875 -3.925781 11.960938 -4.441406 12.328125 -5.078125 C 12.691406 -5.722656 12.875 -6.425781 12.875 -7.1875 C 12.875 -7.957031 12.691406 -8.65625 12.328125 -9.28125 C 11.960938 -9.914062 11.46875 -10.425781 10.84375 -10.8125 C 10.21875 -11.207031 9.515625 -11.40625 8.734375 -11.40625 C 7.992188 -11.40625 7.300781 -11.210938 6.65625 -10.828125 C 6.019531 -10.453125 5.519531 -9.9375 5.15625 -9.28125 C 5.09375 -9.132812 4.976562 -9.101562 4.8125 -9.1875 C 4.695312 -9.269531 4.671875 -9.378906 4.734375 -9.515625 C 5.148438 -10.234375 5.710938 -10.800781 6.421875 -11.21875 C 7.140625 -11.644531 7.910156 -11.859375 8.734375 -11.859375 C 9.609375 -11.859375 10.390625 -11.644531 11.078125 -11.21875 C 11.773438 -10.789062 12.328125 -10.222656 12.734375 -9.515625 C 13.148438 -8.804688 13.359375 -8.03125 13.359375 -7.1875 C 13.359375 -6.332031 13.148438 -5.546875 12.734375 -4.828125 C 12.328125 -4.117188 11.773438 -3.550781 11.078125 -3.125 C 10.390625 -2.695312 9.609375 -2.484375 8.734375 -2.484375 C 7.910156 -2.484375 7.140625 -2.695312 6.421875 -3.125 C 5.710938 -3.550781 5.148438 -4.125 4.734375 -4.84375 Z M 4.734375 -4.84375 "/></g></g><g style="fill:#163b73;fill-opacity:1;"><g transform="translate(258.182383, 192.374987)"><path style="stroke:none" d="M 2.0625 0 C 2.0625 0.15625 1.976562 0.234375 1.8125 0.234375 C 1.664062 0.234375 1.59375 0.15625 1.59375 0 L 1.59375 -14.296875 C 1.59375 -14.460938 1.664062 -14.546875 1.8125 -14.546875 L 7.4375 -14.546875 C 8.28125 -14.546875 9.035156 -14.335938 9.703125 -13.921875 C 10.378906 -13.503906 10.914062 -12.953125 11.3125 -12.265625 C 11.71875 -11.578125 11.921875 -10.820312 11.921875 -10 C 11.921875 -9.238281 11.742188 -8.53125 11.390625 -7.875 C 11.046875 -7.226562 10.570312 -6.691406 9.96875 -6.265625 C 9.363281 -5.835938 8.679688 -5.582031 7.921875 -5.5 L 12.0625 -0.140625 C 12.15625 -0.015625 12.140625 0.0820312 12.015625 0.15625 C 11.910156 0.257812 11.800781 0.25 11.6875 0.125 L 7.28125 -5.5625 C 7.238281 -5.601562 7.21875 -5.65625 7.21875 -5.71875 C 7.21875 -5.875 7.289062 -5.953125 7.4375 -5.953125 C 8.1875 -5.953125 8.863281 -6.132812 9.46875 -6.5 C 10.070312 -6.875 10.550781 -7.367188 10.90625 -7.984375 C 11.257812 -8.597656 11.4375 -9.269531 11.4375 -10 C 11.4375 -10.75 11.257812 -11.425781 10.90625 -12.03125 C 10.550781 -12.644531 10.070312 -13.132812 9.46875 -13.5 C 8.863281 -13.875 8.1875 -14.0625 7.4375 -14.0625 L 2.0625 -14.0625 Z M 6.40625 -8.359375 C 6.238281 -8.359375 6.15625 -8.429688 6.15625 -8.578125 C 6.15625 -8.722656 6.238281 -8.796875 6.40625 -8.796875 L 7.203125 -8.796875 C 7.546875 -8.796875 7.835938 -8.910156 8.078125 -9.140625 C 8.316406 -9.378906 8.4375 -9.664062 8.4375 -10 C 8.4375 -10.34375 8.316406 -10.628906 8.078125 -10.859375 C 7.835938 -11.085938 7.546875 -11.203125 7.203125 -11.203125 L 4.6875 -11.203125 C 4.53125 -11.203125 4.453125 -11.273438 4.453125 -11.421875 C 4.453125 -11.578125 4.53125 -11.65625 4.6875 -11.65625 L 7.203125 -11.65625 C 7.671875 -11.65625 8.070312 -11.5 8.40625 -11.1875 C 8.738281 -10.875 8.90625 -10.476562 8.90625 -10 C 8.90625 -9.53125 8.738281 -9.140625 8.40625 -8.828125 C 8.070312 -8.515625 7.671875 -8.359375 7.203125 -8.359375 Z M 8.578125 -0.140625 C 8.671875 -0.015625 8.660156 0.09375 8.546875 0.1875 C 8.410156 0.289062 8.296875 0.269531 8.203125 0.125 L 4.921875 -4.28125 L 4.921875 0 C 4.921875 0.0507812 4.894531 0.101562 4.84375 0.15625 C 4.800781 0.207031 4.75 0.234375 4.6875 0.234375 C 4.53125 0.234375 4.453125 0.15625 4.453125 0 L 4.453125 -4.953125 C 4.441406 -5.023438 4.472656 -5.09375 4.546875 -5.15625 C 4.660156 -5.238281 4.765625 -5.21875 4.859375 -5.09375 Z M 8.578125 -0.140625 "/></g></g><g style="fill:#163b73;fill-opacity:1;"><g transform="translate(270.597482, 192.374987)"><path style="stroke:none" d="M 9.234375 -0.234375 C 9.378906 -0.234375 9.453125 -0.15625 9.453125 0 C 9.453125 0.144531 9.378906 0.21875 9.234375 0.21875 L 1.84375 0.21875 C 1.675781 0.21875 1.59375 0.144531 1.59375 0 L 1.59375 -14.296875 C 1.59375 -14.441406 1.675781 -14.515625 1.84375 -14.515625 L 9.234375 -14.515625 C 9.378906 -14.515625 9.453125 -14.441406 9.453125 -14.296875 C 9.453125 -14.140625 9.378906 -14.0625 9.234375 -14.0625 L 2.0625 -14.0625 L 2.0625 -0.234375 Z M 9.234375 -11.65625 C 9.378906 -11.65625 9.453125 -11.582031 9.453125 -11.4375 C 9.453125 -11.28125 9.378906 -11.203125 9.234375 -11.203125 L 4.921875 -11.203125 L 4.921875 -8.8125 L 7.90625 -8.8125 C 8.0625 -8.8125 8.140625 -8.734375 8.140625 -8.578125 C 8.140625 -8.421875 8.0625 -8.34375 7.90625 -8.34375 L 4.703125 -8.34375 C 4.535156 -8.34375 4.453125 -8.421875 4.453125 -8.578125 L 4.453125 -11.4375 C 4.453125 -11.582031 4.535156 -11.65625 4.703125 -11.65625 Z M 7.90625 -5.953125 C 8.0625 -5.953125 8.140625 -5.875 8.140625 -5.71875 C 8.140625 -5.570312 8.0625 -5.5 7.90625 -5.5 L 4.921875 -5.5 L 4.921875 -3.09375 L 9.234375 -3.09375 C 9.378906 -3.09375 9.453125 -3.015625 9.453125 -2.859375 C 9.453125 -2.710938 9.378906 -2.640625 9.234375 -2.640625 L 4.703125 -2.640625 C 4.535156 -2.640625 4.453125 -2.710938 4.453125 -2.859375 L 4.453125 -5.71875 C 4.453125 -5.875 4.535156 -5.953125 4.703125 -5.953125 Z M 7.90625 -5.953125 "/></g></g><g style="fill:#163b73;fill-opacity:1;"><g transform="translate(281.133325, 192.374987)"><path style="stroke:none" d="M 9 -13.984375 C 9.144531 -13.929688 9.191406 -13.832031 9.140625 -13.6875 C 9.085938 -13.550781 8.988281 -13.507812 8.84375 -13.5625 C 8.132812 -13.8125 7.398438 -13.984375 6.640625 -14.078125 C 5.890625 -14.179688 5.171875 -14.148438 4.484375 -13.984375 C 3.796875 -13.816406 3.1875 -13.445312 2.65625 -12.875 C 2.226562 -12.425781 1.925781 -11.867188 1.75 -11.203125 C 1.570312 -10.546875 1.554688 -9.878906 1.703125 -9.203125 C 1.847656 -8.535156 2.207031 -7.941406 2.78125 -7.421875 C 3.269531 -6.992188 3.769531 -6.671875 4.28125 -6.453125 C 4.800781 -6.234375 5.285156 -6.039062 5.734375 -5.875 C 6.179688 -5.707031 6.546875 -5.503906 6.828125 -5.265625 C 7.117188 -5.035156 7.273438 -4.6875 7.296875 -4.21875 C 7.328125 -3.75 7.164062 -3.359375 6.8125 -3.046875 C 6.457031 -2.742188 6.046875 -2.582031 5.578125 -2.5625 C 4.953125 -2.519531 4.257812 -2.585938 3.5 -2.765625 C 2.75 -2.953125 2.054688 -3.273438 1.421875 -3.734375 C 1.285156 -3.828125 1.265625 -3.929688 1.359375 -4.046875 C 1.453125 -4.171875 1.5625 -4.195312 1.6875 -4.125 C 2 -3.90625 2.375 -3.703125 2.8125 -3.515625 C 3.257812 -3.328125 3.71875 -3.1875 4.1875 -3.09375 C 4.664062 -3 5.109375 -2.972656 5.515625 -3.015625 C 5.929688 -3.054688 6.265625 -3.191406 6.515625 -3.421875 C 6.753906 -3.648438 6.859375 -3.914062 6.828125 -4.21875 C 6.804688 -4.53125 6.679688 -4.789062 6.453125 -5 C 6.273438 -5.15625 5.976562 -5.3125 5.5625 -5.46875 C 5.144531 -5.625 4.6875 -5.8125 4.1875 -6.03125 C 3.6875 -6.25 3.203125 -6.523438 2.734375 -6.859375 C 2.273438 -7.203125 1.894531 -7.628906 1.59375 -8.140625 C 1.289062 -8.648438 1.140625 -9.273438 1.140625 -10.015625 C 1.140625 -11.054688 1.382812 -11.941406 1.875 -12.671875 C 2.375 -13.398438 3.050781 -13.929688 3.90625 -14.265625 C 4.757812 -14.597656 5.71875 -14.691406 6.78125 -14.546875 C 7.0625 -14.503906 7.382812 -14.4375 7.75 -14.34375 C 8.113281 -14.257812 8.53125 -14.140625 9 -13.984375 Z M 1.0625 -0.734375 C 0.925781 -0.804688 0.894531 -0.90625 0.96875 -1.03125 C 1.050781 -1.164062 1.160156 -1.203125 1.296875 -1.140625 C 1.867188 -0.847656 2.488281 -0.609375 3.15625 -0.421875 C 3.820312 -0.234375 4.488281 -0.128906 5.15625 -0.109375 C 5.820312 -0.0976562 6.453125 -0.191406 7.046875 -0.390625 C 7.648438 -0.585938 8.175781 -0.90625 8.625 -1.34375 C 9.070312 -1.8125 9.390625 -2.367188 9.578125 -3.015625 C 9.773438 -3.660156 9.800781 -4.316406 9.65625 -4.984375 C 9.507812 -5.660156 9.148438 -6.257812 8.578125 -6.78125 C 8.085938 -7.25 7.582031 -7.597656 7.0625 -7.828125 C 6.539062 -8.066406 6.054688 -8.269531 5.609375 -8.4375 C 5.160156 -8.601562 4.789062 -8.800781 4.5 -9.03125 C 4.207031 -9.257812 4.046875 -9.601562 4.015625 -10.0625 C 4.003906 -10.53125 4.15625 -10.914062 4.46875 -11.21875 C 4.78125 -11.53125 5.164062 -11.691406 5.625 -11.703125 C 6.53125 -11.753906 7.535156 -11.550781 8.640625 -11.09375 C 8.785156 -11.039062 8.828125 -10.941406 8.765625 -10.796875 C 8.710938 -10.660156 8.609375 -10.625 8.453125 -10.6875 C 8.109375 -10.832031 7.660156 -10.972656 7.109375 -11.109375 C 6.566406 -11.242188 6.0625 -11.285156 5.59375 -11.234375 C 5.300781 -11.203125 5.035156 -11.09375 4.796875 -10.90625 C 4.566406 -10.726562 4.460938 -10.46875 4.484375 -10.125 C 4.484375 -9.789062 4.628906 -9.507812 4.921875 -9.28125 C 5.109375 -9.144531 5.40625 -8.992188 5.8125 -8.828125 C 6.21875 -8.671875 6.671875 -8.476562 7.171875 -8.25 C 7.671875 -8.019531 8.148438 -7.726562 8.609375 -7.375 C 9.066406 -7.03125 9.445312 -6.597656 9.75 -6.078125 C 10.050781 -5.566406 10.203125 -4.953125 10.203125 -4.234375 C 10.203125 -3.328125 10.015625 -2.550781 9.640625 -1.90625 C 9.273438 -1.269531 8.773438 -0.765625 8.140625 -0.390625 C 7.503906 -0.0234375 6.769531 0.195312 5.9375 0.28125 C 5.113281 0.363281 4.25 0.296875 3.34375 0.078125 C 2.976562 -0.00390625 2.601562 -0.109375 2.21875 -0.234375 C 1.84375 -0.367188 1.457031 -0.535156 1.0625 -0.734375 Z M 1.0625 -0.734375 "/></g></g><g mask="url(#47f8ff17ec)" transform="matrix(1,0,0,1,287,187)"><g clip-path="url(#af90ca5911)"><g clip-rule="nonzero" clip-path="url(#e307e169da)"><path style=" stroke:none;fill-rule:nonzero;fill:#163b73;fill-opacity:1;" d="M 16.304688 7.414062 L 12.816406 7.414062 C 12.691406 7.414062 12.585938 7.351562 12.523438 7.25 L 8.933594 0.914062 C 8.808594 0.707031 8.578125 0.5625 8.328125 0.5625 L 7.582031 0.5625 C 7.355469 0.5625 7.1875 0.789062 7.25 1.019531 L 9.304688 7.4375 L 3.84375 7.4375 C 3.738281 7.4375 3.636719 7.394531 3.554688 7.332031 L 1.933594 5.835938 C 1.871094 5.773438 1.789062 5.734375 1.683594 5.734375 L 0.8125 5.734375 C 0.5625 5.734375 0.398438 6.003906 0.5 6.230469 L 1.746094 8.742188 L 0.5 11.257812 C 0.398438 11.484375 0.5625 11.753906 0.8125 11.753906 L 1.707031 11.753906 C 1.808594 11.753906 1.890625 11.714844 1.953125 11.652344 L 3.574219 10.15625 C 3.65625 10.09375 3.761719 10.050781 3.863281 10.050781 L 9.347656 10.050781 L 7.292969 16.46875 C 7.230469 16.699219 7.394531 16.925781 7.625 16.925781 L 8.371094 16.925781 C 8.621094 16.925781 8.847656 16.800781 8.972656 16.574219 L 12.523438 10.15625 C 12.585938 10.050781 12.691406 9.988281 12.816406 9.988281 L 16.824219 9.988281 C 17.820312 9.988281 20.625 8.828125 18.132812 7.789062 C 17.550781 7.539062 16.925781 7.414062 16.304688 7.414062 Z M 16.304688 7.414062 "/></g></g><mask id="47f8ff17ec"><g filter="url(#5be57c2f6b)"><rect x="0" width="375" y="0" height="374.999991" style="fill:#000000;fill-opacity:0.42;stroke:none;"/></g></mask></g><g mask="url(#49221a451b)" transform="matrix(1,0,0,1,77,195)"><g clip-path="url(#06f0344184)"><g clip-rule="nonzero" clip-path="url(#24b24a9813)"><path style=" stroke:none;fill-rule:nonzero;fill:#163b73;fill-opacity:1;" d="M 3.925781 0.226562 L 0.101562 0.226562 L 0.101562 0.96875 L 4.09375 0.96875 C 4.046875 0.710938 4 0.46875 3.925781 0.226562 Z M 3.925781 0.226562 "/></g><g clip-rule="nonzero" clip-path="url(#f4287c7b5f)"><path style=" stroke:none;fill-rule:nonzero;fill:#163b73;fill-opacity:1;" d="M 12.074219 0.65625 C 11.957031 0.539062 11.90625 0.398438 11.90625 0.226562 L 7.105469 0.226562 C 7.105469 0.46875 7.128906 0.710938 7.128906 0.96875 L 12.074219 0.96875 C 12.074219 0.863281 12.074219 0.761719 12.074219 0.65625 Z M 12.074219 0.65625 "/></g><g clip-rule="nonzero" clip-path="url(#2511ae300d)"><path style=" stroke:none;fill-rule:nonzero;fill:#163b73;fill-opacity:1;" d="M 19.507812 0.226562 L 14.988281 0.226562 L 14.988281 0.96875 L 19.554688 0.96875 C 19.53125 0.710938 19.507812 0.46875 19.507812 0.226562 Z M 19.507812 0.226562 "/></g><g clip-rule="nonzero" clip-path="url(#fffc03cf88)"><path style=" stroke:none;fill-rule:nonzero;fill:#163b73;fill-opacity:1;" d="M 35.777344 0.226562 L 30.449219 0.226562 C 30.449219 0.46875 30.472656 0.710938 30.472656 0.96875 L 35.777344 0.96875 Z M 35.777344 0.226562 "/></g><g clip-rule="nonzero" clip-path="url(#0776986099)"><path style=" stroke:none;fill-rule:nonzero;fill:#163b73;fill-opacity:1;" d="M 43.832031 0.226562 L 38.910156 0.226562 C 38.910156 0.46875 38.910156 0.710938 38.933594 0.96875 L 43.902344 0.96875 C 43.878906 0.710938 43.855469 0.46875 43.832031 0.226562 Z M 43.832031 0.226562 "/></g><g clip-rule="nonzero" clip-path="url(#6ac899ed2e)"><path style=" stroke:none;fill-rule:nonzero;fill:#163b73;fill-opacity:1;" d="M 51.285156 0.226562 L 46.53125 0.226562 C 46.554688 0.46875 46.601562 0.710938 46.628906 0.96875 L 51.261719 0.96875 C 51.261719 0.710938 51.261719 0.46875 51.285156 0.226562 Z M 51.285156 0.226562 "/></g><g clip-rule="nonzero" clip-path="url(#a7bc524119)"><path style=" stroke:none;fill-rule:nonzero;fill:#163b73;fill-opacity:1;" d="M 59.269531 0.226562 L 54.128906 0.226562 C 54.105469 0.46875 54.105469 0.710938 54.082031 0.96875 L 59.21875 0.96875 C 59.195312 0.710938 59.21875 0.46875 59.269531 0.226562 Z M 59.269531 0.226562 "/></g><g clip-rule="nonzero" clip-path="url(#602d45f22c)"><path style=" stroke:none;fill-rule:nonzero;fill:#163b73;fill-opacity:1;" d="M 67.464844 0.226562 L 62.324219 0.226562 C 62.351562 0.46875 62.375 0.710938 62.398438 0.96875 L 67.582031 0.96875 C 67.535156 0.710938 67.488281 0.46875 67.464844 0.226562 Z M 67.464844 0.226562 "/></g><g clip-rule="nonzero" clip-path="url(#23a30f3564)"><path style=" stroke:none;fill-rule:nonzero;fill:#163b73;fill-opacity:1;" d="M 83.976562 0.226562 L 78.597656 0.226562 C 78.597656 0.46875 78.621094 0.710938 78.621094 0.96875 L 83.976562 0.96875 C 83.976562 0.710938 83.976562 0.46875 83.976562 0.226562 Z M 83.976562 0.226562 "/></g><g clip-rule="nonzero" clip-path="url(#2aa75fa722)"><path style=" stroke:none;fill-rule:nonzero;fill:#163b73;fill-opacity:1;" d="M 92.339844 0.570312 C 92.316406 0.453125 92.316406 0.347656 92.289062 0.226562 L 87.152344 0.226562 C 87.175781 0.46875 87.175781 0.710938 87.199219 0.96875 L 92.363281 0.96875 C 92.363281 0.828125 92.339844 0.691406 92.339844 0.570312 Z M 92.339844 0.570312 "/></g><g clip-rule="nonzero" clip-path="url(#6bda14605d)"><path style=" stroke:none;fill-rule:nonzero;fill:#163b73;fill-opacity:1;" d="M 101.464844 0.226562 L 95.277344 0.226562 C 95.300781 0.46875 95.347656 0.710938 95.375 0.96875 L 101.492188 0.96875 C 101.492188 0.710938 101.492188 0.46875 101.464844 0.226562 Z M 101.464844 0.226562 "/></g><g clip-rule="nonzero" clip-path="url(#b252265c82)"><path style=" stroke:none;fill-rule:nonzero;fill:#163b73;fill-opacity:1;" d="M 110.667969 0.226562 L 104.90625 0.226562 C 104.90625 0.46875 104.929688 0.710938 104.929688 0.96875 L 110.738281 0.96875 C 110.738281 0.710938 110.691406 0.46875 110.667969 0.226562 Z M 110.667969 0.226562 "/></g><g clip-rule="nonzero" clip-path="url(#02984f8842)"><path style=" stroke:none;fill-rule:nonzero;fill:#163b73;fill-opacity:1;" d="M 125.625 0.226562 L 120.726562 0.226562 C 120.726562 0.46875 120.75 0.710938 120.75 0.96875 L 125.769531 0.96875 C 125.71875 0.710938 125.671875 0.46875 125.625 0.226562 Z M 125.625 0.226562 "/></g><g clip-rule="nonzero" clip-path="url(#e07f2f862b)"><path style=" stroke:none;fill-rule:nonzero;fill:#163b73;fill-opacity:1;" d="M 133.917969 0.226562 L 127.964844 0.226562 C 128.015625 0.46875 128.085938 0.726562 128.132812 0.96875 L 133.941406 0.96875 C 133.941406 0.710938 133.941406 0.46875 133.917969 0.226562 Z M 133.917969 0.226562 "/></g><g clip-rule="nonzero" clip-path="url(#72b5c28fce)"><path style=" stroke:none;fill-rule:nonzero;fill:#163b73;fill-opacity:1;" d="M 141.179688 0.226562 L 136.304688 0.226562 C 136.304688 0.46875 136.328125 0.710938 136.328125 0.96875 L 141.226562 0.96875 C 141.203125 0.710938 141.203125 0.46875 141.179688 0.226562 Z M 141.179688 0.226562 "/></g><g clip-rule="nonzero" clip-path="url(#75a74aefad)"><path style=" stroke:none;fill-rule:nonzero;fill:#163b73;fill-opacity:1;" d="M 155.949219 0.226562 L 151.074219 0.226562 C 151.074219 0.46875 151.074219 0.710938 151.074219 0.96875 L 155.996094 0.96875 C 155.972656 0.710938 155.949219 0.46875 155.949219 0.226562 Z M 155.949219 0.226562 "/></g><g clip-rule="nonzero" clip-path="url(#b5c32ef994)"><path style=" stroke:none;fill-rule:nonzero;fill:#163b73;fill-opacity:1;" d="M 163.5 0.226562 L 158.335938 0.226562 C 158.359375 0.46875 158.359375 0.710938 158.382812 0.96875 L 163.546875 0.96875 C 163.523438 0.710938 163.5 0.46875 163.5 0.226562 Z M 163.5 0.226562 "/></g><g clip-rule="nonzero" clip-path="url(#b283e5c4c7)"><path style=" stroke:none;fill-rule:nonzero;fill:#163b73;fill-opacity:1;" d="M 170.90625 0.226562 L 165.886719 0.226562 C 165.886719 0.46875 165.910156 0.710938 165.9375 0.96875 L 170.953125 0.96875 C 170.929688 0.710938 170.90625 0.46875 170.90625 0.226562 Z M 170.90625 0.226562 "/></g><g clip-rule="nonzero" clip-path="url(#0557d62a30)"><path style=" stroke:none;fill-rule:nonzero;fill:#163b73;fill-opacity:1;" d="M 178.242188 0.226562 L 173.320312 0.226562 C 173.320312 0.46875 173.34375 0.710938 173.367188 0.96875 L 178.265625 0.96875 C 178.242188 0.710938 178.242188 0.46875 178.242188 0.226562 Z M 178.242188 0.226562 "/></g><g clip-rule="nonzero" clip-path="url(#1f8e700b20)"><path style=" stroke:none;fill-rule:nonzero;fill:#163b73;fill-opacity:1;" d="M 192.171875 0.226562 L 187.824219 0.226562 C 187.847656 0.46875 187.847656 0.710938 187.871094 0.96875 L 192.171875 0.96875 C 192.171875 0.710938 192.171875 0.46875 192.171875 0.226562 Z M 192.171875 0.226562 "/></g><g clip-rule="nonzero" clip-path="url(#15ec10bad9)"><path style=" stroke:none;fill-rule:nonzero;fill:#163b73;fill-opacity:1;" d="M 199.769531 0.226562 L 194.921875 0.226562 C 194.945312 0.46875 194.992188 0.710938 195.039062 0.96875 L 199.796875 0.96875 C 199.769531 0.710938 199.769531 0.46875 199.769531 0.226562 Z M 199.769531 0.226562 "/></g><g clip-rule="nonzero" clip-path="url(#516cd554f8)"><path style=" stroke:none;fill-rule:nonzero;fill:#163b73;fill-opacity:1;" d="M 203.355469 0.226562 C 203.355469 0.261719 203.355469 0.296875 203.355469 0.347656 L 203.355469 0.96875 L 209.351562 0.96875 L 209.351562 0.226562 Z M 203.355469 0.226562 "/></g><g clip-rule="nonzero" clip-path="url(#e050c4036a)"><path style=" stroke:none;fill-rule:nonzero;fill:#163b73;fill-opacity:1;" d="M 185.289062 0.226562 L 181.226562 0.226562 C 181.253906 0.46875 181.253906 0.710938 181.277344 0.96875 L 185.363281 0.96875 C 185.316406 0.710938 185.289062 0.46875 185.289062 0.226562 Z M 185.289062 0.226562 "/></g><g clip-rule="nonzero" clip-path="url(#55a8e4cf5a)"><path style=" stroke:none;fill-rule:nonzero;fill:#163b73;fill-opacity:1;" d="M 148.683594 0.226562 L 143.570312 0.226562 C 143.59375 0.46875 143.59375 0.710938 143.617188 0.96875 L 148.683594 0.96875 C 148.660156 0.710938 148.660156 0.46875 148.683594 0.226562 Z M 148.683594 0.226562 "/></g><g clip-rule="nonzero" clip-path="url(#5bbcd992d8)"><path style=" stroke:none;fill-rule:nonzero;fill:#163b73;fill-opacity:1;" d="M 118.359375 0.226562 L 113.054688 0.226562 C 113.078125 0.46875 113.128906 0.710938 113.152344 0.96875 L 118.382812 0.96875 C 118.359375 0.710938 118.359375 0.46875 118.359375 0.226562 Z M 118.359375 0.226562 "/></g><g clip-rule="nonzero" clip-path="url(#667cc57e93)"><path style=" stroke:none;fill-rule:nonzero;fill:#163b73;fill-opacity:1;" d="M 75.898438 0.226562 L 70.570312 0.226562 C 70.59375 0.46875 70.59375 0.710938 70.59375 0.96875 L 75.851562 0.96875 C 75.875 0.710938 75.875 0.46875 75.898438 0.226562 Z M 75.898438 0.226562 "/></g><g clip-rule="nonzero" clip-path="url(#8ef333d7ad)"><path style=" stroke:none;fill-rule:nonzero;fill:#163b73;fill-opacity:1;" d="M 27.84375 0.226562 L 23.066406 0.226562 C 23.066406 0.296875 23.066406 0.347656 23.066406 0.417969 C 23.066406 0.605469 23.089844 0.777344 23.089844 0.96875 L 27.871094 0.96875 C 27.871094 0.710938 27.84375 0.46875 27.84375 0.226562 Z M 27.84375 0.226562 "/></g></g><mask id="49221a451b"><g filter="url(#5be57c2f6b)"><rect x="0" width="375" y="0" height="374.999991" style="fill:#000000;fill-opacity:0.41;stroke:none;"/></g></mask></g><g mask="url(#c79ed188d3)" transform="matrix(1,0,0,1,163,140)"><g clip-path="url(#966bbd5234)"><g clip-rule="nonzero" clip-path="url(#1c0feebcf9)"><path style=" stroke:none;fill-rule:nonzero;fill:#163b73;fill-opacity:1;" d="M 11.261719 24.371094 C 9.652344 26.109375 5.570312 26.445312 3.609375 25.34375 C 1.667969 24.25 0.988281 22.460938 1.019531 20.335938 C 1.058594 17.558594 2.757812 14.910156 5.15625 14.019531 C 5.773438 13.785156 6.144531 13.472656 6.488281 12.925781 C 7.339844 11.519531 8.695312 10.863281 10.300781 10.753906 C 10.847656 10.710938 11.128906 10.5625 11.34375 9.996094 C 12.28125 7.4375 14.617188 5.898438 17.460938 5.839844 C 18.613281 5.820312 19.746094 5.929688 20.855469 6.222656 C 21.039062 6.273438 21.242188 6.4375 21.332031 6.082031 C 22 3.664062 23.769531 2.3125 25.992188 1.523438 C 29.21875 0.371094 32.179688 0.8125 34.707031 3.25 C 34.878906 3.421875 35.070312 3.421875 35.273438 3.453125 C 37.722656 3.765625 39.976562 4.535156 41.816406 6.265625 C 42.523438 6.929688 43.019531 7.738281 43.242188 8.691406 C 43.300781 8.933594 43.363281 9.085938 43.636719 9.164062 C 45.808594 9.730469 47.023438 11.21875 47.4375 13.351562 C 47.941406 15.980469 47.355469 18.347656 45.457031 20.308594 C 44.796875 20.984375 44.007812 21.511719 43.058594 21.664062 C 41.25 21.945312 40.410156 23.160156 39.984375 24.777344 C 39.53125 26.503906 39.570312 28.246094 39.90625 29.984375 C 39.976562 30.355469 40.398438 30.660156 40.117188 31.09375 C 39.882812 31.460938 39.480469 31.570312 39.148438 31.773438 C 36.527344 33.390625 33.644531 34.261719 30.632812 34.746094 C 26.398438 35.421875 22.140625 35.511719 17.882812 34.917969 C 16.480469 34.714844 15.15625 34.28125 13.828125 33.773438 C 12.496094 33.269531 11.867188 32.296875 11.707031 30.933594 C 11.554688 29.679688 11.636719 28.425781 11.59375 27.164062 C 11.574219 26.242188 11.542969 25.332031 11.261719 24.371094 Z M 39.246094 23.332031 C 39.398438 23.109375 39.246094 23.058594 39.175781 22.976562 C 38.761719 22.542969 38.257812 22.238281 37.722656 21.984375 C 37.550781 21.90625 37.386719 21.824219 37.5 21.613281 C 37.589844 21.429688 37.75 21.519531 37.894531 21.582031 C 38.417969 21.8125 38.914062 22.105469 39.359375 22.460938 C 39.5 22.570312 39.613281 22.671875 39.753906 22.449219 C 39.90625 22.226562 39.835938 22.136719 39.613281 22.027344 C 38.550781 21.46875 37.488281 20.914062 36.375 20.449219 C 34.777344 19.78125 33.089844 19.507812 31.390625 19.296875 C 31.230469 19.277344 30.945312 19.328125 30.988281 19.035156 C 31.019531 18.832031 31.230469 18.914062 31.371094 18.921875 C 33.917969 19.15625 36.347656 19.792969 38.632812 20.976562 C 39.066406 21.207031 39.519531 21.410156 39.964844 21.632812 C 40.148438 21.722656 40.328125 21.804688 40.460938 21.582031 C 40.613281 21.328125 40.339844 21.296875 40.226562 21.226562 C 39.792969 20.914062 39.339844 20.652344 38.84375 20.429688 C 38.710938 20.367188 38.53125 20.296875 38.632812 20.09375 C 38.710938 19.933594 38.863281 19.914062 39.023438 19.984375 C 39.367188 20.144531 39.753906 20.265625 40.035156 20.5 C 40.683594 21.046875 41.269531 20.996094 42.070312 20.730469 C 44.738281 19.851562 46.496094 17.476562 46.394531 14.695312 C 46.304688 12.066406 44.960938 10.589844 42.351562 10.390625 C 41.421875 10.316406 40.480469 10.316406 39.550781 10.308594 C 39.226562 10.308594 38.984375 10.175781 38.925781 9.84375 C 38.851562 9.480469 39.148438 9.398438 39.398438 9.308594 C 40.167969 9.054688 40.945312 8.882812 41.753906 8.921875 C 42.300781 8.953125 42.320312 8.75 42.128906 8.335938 C 41.90625 7.839844 41.625 7.40625 41.25 7.011719 C 40.046875 5.789062 38.550781 5.132812 36.933594 4.6875 C 36.539062 4.574219 36.144531 4.425781 35.6875 4.472656 C 35.738281 4.585938 35.78125 4.675781 35.808594 4.757812 C 35.910156 5.03125 36.183594 5.332031 35.800781 5.554688 C 35.414062 5.769531 35.203125 5.476562 35.03125 5.183594 C 34.636719 4.503906 34.070312 3.957031 33.515625 3.464844 C 31.097656 1.320312 28.347656 1.300781 25.507812 2.484375 C 23.839844 3.179688 22.585938 4.300781 22.058594 6.121094 C 21.898438 6.679688 22.3125 6.648438 22.574219 6.800781 C 22.929688 7.011719 22.988281 6.730469 23.082031 6.496094 C 23.375 5.789062 23.738281 5.121094 24.242188 4.546875 C 24.34375 4.433594 24.445312 4.179688 24.636719 4.332031 C 24.851562 4.496094 24.609375 4.625 24.515625 4.746094 C 24.019531 5.363281 23.6875 6.0625 23.40625 6.789062 C 23.234375 7.214844 23.578125 7.246094 23.789062 7.40625 C 24.09375 7.617188 24.121094 7.335938 24.222656 7.183594 C 24.394531 6.953125 24.546875 6.707031 24.730469 6.488281 C 24.832031 6.355469 24.953125 6.164062 25.144531 6.335938 C 25.316406 6.488281 25.113281 6.597656 25.042969 6.71875 C 24.878906 6.972656 24.707031 7.222656 24.535156 7.476562 C 24.414062 7.667969 24.445312 7.78125 24.636719 7.941406 C 24.960938 8.214844 25.164062 8.234375 25.335938 7.8125 C 25.394531 7.660156 25.507812 7.457031 25.710938 7.566406 C 25.882812 7.660156 25.789062 7.839844 25.691406 7.960938 C 25.296875 8.4375 25.496094 8.742188 25.984375 8.984375 C 26.0625 8.882812 26.144531 8.78125 26.226562 8.671875 C 26.296875 8.570312 26.386719 8.488281 26.507812 8.550781 C 26.671875 8.628906 26.640625 8.800781 26.558594 8.894531 C 26.195312 9.285156 26.449219 9.558594 26.699219 9.863281 C 26.933594 10.136719 27.113281 10.449219 27.308594 10.761719 C 27.449219 10.996094 27.679688 11.269531 27.347656 11.511719 C 27.015625 11.753906 26.832031 11.460938 26.628906 11.269531 C 25.527344 10.21875 24.464844 9.113281 23.191406 8.265625 C 20.542969 6.507812 17.742188 6.121094 14.78125 7.394531 C 13.476562 7.953125 12.484375 8.882812 11.898438 10.195312 C 11.839844 10.339844 11.574219 10.550781 11.828125 10.671875 C 12.050781 10.773438 12.082031 10.449219 12.183594 10.308594 C 12.304688 10.136719 12.394531 9.953125 12.515625 9.78125 C 12.585938 9.679688 12.707031 9.652344 12.820312 9.730469 C 12.910156 9.800781 12.859375 9.902344 12.820312 9.996094 C 12.707031 10.226562 12.484375 10.417969 12.527344 10.722656 C 12.980469 10.074219 13.527344 9.53125 14.171875 9.09375 C 14.316406 8.992188 14.496094 8.761719 14.660156 8.972656 C 14.832031 9.207031 14.527344 9.277344 14.394531 9.378906 C 13.878906 9.78125 13.324219 10.144531 13.0625 10.785156 C 13.515625 11.035156 13.839844 10.875 14.132812 10.53125 C 14.222656 10.429688 14.34375 10.359375 14.476562 10.480469 C 14.640625 10.632812 14.457031 10.703125 14.386719 10.804688 C 14.34375 10.863281 14.296875 10.914062 14.246094 10.976562 C 14.8125 11.328125 14.992188 11.714844 14.800781 12.199219 C 14.578125 12.753906 14.132812 12.722656 13.65625 12.652344 C 13.019531 12.550781 12.382812 12.429688 11.738281 12.378906 C 10.3125 12.28125 9.007812 12.5625 8.007812 13.695312 C 7.46875 14.300781 7.117188 15.019531 6.742188 15.726562 C 6.460938 16.261719 6.167969 16.800781 5.863281 17.324219 C 5.742188 17.539062 5.539062 17.660156 5.285156 17.546875 C 5.054688 17.4375 4.953125 17.242188 5.023438 16.980469 C 5.054688 16.871094 5.0625 16.757812 5.09375 16.554688 C 4.597656 17.042969 4.367188 17.578125 4.164062 18.113281 C 4.105469 18.265625 4.0625 18.488281 3.832031 18.398438 C 3.628906 18.316406 3.75 18.132812 3.800781 18.003906 C 4.054688 17.273438 4.386719 16.585938 4.972656 16.070312 C 5.367188 15.726562 5.46875 15.304688 5.550781 14.816406 C 4.921875 14.988281 4.417969 15.292969 3.910156 15.777344 C 2.152344 17.476562 1.585938 20.671875 2.65625 22.886719 C 3.082031 23.773438 3.761719 24.421875 4.699219 24.683594 C 6.277344 25.140625 7.863281 25.058594 9.402344 24.441406 C 9.796875 24.289062 10.148438 24.046875 10.339844 23.582031 C 9.753906 23.734375 9.21875 23.875 8.695312 23.996094 C 8.574219 24.027344 8.402344 24.058594 8.351562 23.886719 C 8.289062 23.695312 8.429688 23.613281 8.582031 23.5625 C 8.695312 23.53125 8.816406 23.53125 8.917969 23.480469 C 9.007812 23.429688 9.167969 23.492188 9.210938 23.300781 C 8.390625 23.421875 7.582031 23.5625 6.773438 23.308594 C 6.601562 23.257812 6.316406 23.257812 6.367188 23.007812 C 6.429688 22.703125 6.671875 22.894531 6.832031 22.9375 C 8.035156 23.25 9.167969 23.015625 10.28125 22.542969 C 10.414062 22.480469 10.585938 22.449219 10.535156 22.167969 C 9.9375 22.390625 9.320312 22.460938 8.695312 22.410156 C 8.511719 22.390625 8.199219 22.472656 8.238281 22.148438 C 8.269531 21.882812 8.53125 21.976562 8.714844 22.007812 C 9.230469 22.085938 9.714844 22.015625 10.179688 21.742188 C 9.867188 21.652344 9.554688 21.613281 9.238281 21.5625 C 9.097656 21.539062 8.894531 21.5625 8.90625 21.339844 C 8.917969 21.074219 9.128906 21.148438 9.289062 21.136719 C 9.351562 21.136719 9.453125 21.175781 9.472656 21.023438 C 9.320312 20.902344 9.167969 20.773438 8.996094 20.652344 C 8.816406 20.507812 8.695312 20.347656 8.867188 20.125 C 9.027344 19.914062 9.210938 20.023438 9.359375 20.136719 C 9.886719 20.507812 10.433594 20.894531 10.808594 21.417969 C 11.128906 21.875 11.34375 21.824219 11.714844 21.480469 C 12.171875 21.054688 12.6875 20.691406 13.34375 20.570312 C 13.203125 20.804688 13.019531 20.996094 12.820312 21.15625 C 12.464844 21.441406 12.082031 21.703125 11.738281 21.996094 C 11.261719 22.390625 11.789062 22.683594 11.910156 22.964844 C 12.039062 23.289062 12.253906 22.957031 12.382812 22.855469 C 13.667969 21.894531 15.0625 21.195312 16.640625 20.851562 C 16.921875 20.792969 17.246094 20.832031 17.539062 20.609375 C 17.175781 20.226562 16.84375 19.832031 16.621094 19.378906 C 16.539062 19.207031 16.5 18.992188 16.722656 18.882812 C 16.914062 18.78125 17.046875 18.921875 17.136719 19.074219 C 18.238281 20.984375 19.988281 21.621094 22.058594 21.53125 C 23.65625 21.460938 25.214844 21.195312 26.46875 20.066406 C 27.144531 19.457031 27.550781 18.648438 28.035156 17.902344 C 28.125 17.769531 28.207031 17.539062 28.410156 17.648438 C 28.601562 17.75 28.5 17.960938 28.441406 18.113281 C 28.246094 18.597656 28.035156 19.074219 27.8125 19.570312 C 28.085938 19.570312 28.308594 19.570312 28.53125 19.570312 C 31.160156 19.640625 33.585938 20.410156 35.890625 21.613281 C 36.164062 21.753906 36.507812 21.882812 36.324219 22.277344 C 36.144531 22.671875 35.820312 22.5 35.539062 22.378906 C 32.917969 21.207031 30.238281 20.367188 27.316406 20.550781 C 27.015625 20.570312 26.800781 20.640625 26.550781 20.792969 C 23.949219 22.378906 21.261719 22.722656 18.46875 21.320312 C 18.226562 21.195312 18.035156 21.167969 17.773438 21.21875 C 15.648438 21.691406 14.011719 23.007812 12.382812 24.320312 C 12.324219 24.371094 12.324219 24.453125 12.394531 24.554688 C 12.476562 24.503906 12.578125 24.453125 12.648438 24.382812 C 13.101562 23.976562 13.597656 23.613281 14.132812 23.332031 C 14.335938 23.21875 14.660156 22.9375 14.820312 23.230469 C 14.972656 23.503906 14.566406 23.59375 14.375 23.703125 C 13.757812 24.046875 13.183594 24.460938 12.667969 24.9375 C 12.503906 25.089844 12.324219 25.242188 12.535156 25.492188 C 12.890625 25.191406 13.222656 24.886719 13.585938 24.605469 C 14.628906 23.785156 15.832031 23.257812 17.054688 22.753906 C 17.277344 22.664062 17.511719 22.621094 17.640625 22.90625 C 17.78125 23.230469 17.519531 23.289062 17.316406 23.390625 C 17.21875 23.441406 17.105469 23.480469 17.003906 23.523438 C 15.449219 24.167969 13.972656 24.949219 12.890625 26.3125 C 12.769531 26.464844 12.617188 26.597656 12.605469 26.871094 C 13.09375 26.382812 13.507812 25.898438 14.101562 25.636719 C 14.234375 25.574219 14.394531 25.445312 14.507812 25.625 C 14.617188 25.808594 14.425781 25.910156 14.316406 25.980469 C 13.707031 26.355469 13.292969 26.949219 12.726562 27.355469 C 12.554688 27.476562 12.578125 27.617188 12.554688 27.679688 C 12.898438 27.355469 13.285156 27.070312 13.648438 26.769531 C 14.03125 26.445312 14.425781 26.160156 14.859375 25.917969 C 15.125 25.777344 15.386719 25.59375 15.597656 25.9375 C 15.8125 26.292969 15.597656 26.476562 15.285156 26.648438 C 14.4375 27.101562 13.6875 27.6875 13.101562 28.464844 C 12.929688 28.6875 12.738281 28.921875 12.6875 29.296875 C 13.292969 28.738281 13.878906 28.285156 14.566406 27.972656 C 14.6875 27.921875 14.832031 27.828125 14.921875 27.980469 C 15.023438 28.144531 14.851562 28.214844 14.75 28.285156 C 14.597656 28.394531 14.4375 28.496094 14.273438 28.609375 C 14.125 28.71875 13.972656 28.839844 13.820312 28.953125 C 17.78125 26.878906 22.070312 26.726562 26.355469 26.757812 C 30.703125 26.789062 34.878906 27.757812 38.851562 29.660156 C 38.945312 29.023438 38.875 28.609375 38.207031 28.425781 C 37.699219 28.292969 37.226562 28.011719 36.742188 27.789062 C 36.609375 27.730469 36.367188 27.699219 36.425781 27.527344 C 36.496094 27.3125 36.710938 27.433594 36.863281 27.496094 C 37.476562 27.738281 38.085938 27.980469 38.730469 28.234375 C 38.730469 27.980469 38.703125 27.789062 38.742188 27.605469 C 39.015625 26.304688 38.507812 25.535156 37.175781 25.320312 C 37.054688 25.300781 36.761719 25.28125 36.882812 25.019531 C 36.972656 24.816406 37.183594 24.90625 37.335938 24.96875 C 37.710938 25.101562 38.09375 25.222656 38.460938 25.382812 C 38.753906 25.515625 38.8125 25.402344 38.851562 25.128906 C 38.882812 24.878906 38.84375 24.683594 38.609375 24.542969 C 38.347656 24.390625 38.09375 24.230469 37.832031 24.058594 C 37.699219 23.976562 37.550781 23.898438 37.640625 23.703125 C 37.75 23.472656 37.921875 23.574219 38.074219 23.652344 C 38.277344 23.753906 38.46875 23.886719 38.671875 23.996094 C 38.792969 24.058594 38.914062 24.261719 39.054688 24.070312 C 39.175781 23.898438 39.066406 23.734375 38.914062 23.632812 C 38.601562 23.421875 38.277344 23.21875 37.964844 23.007812 C 37.851562 22.925781 37.660156 22.855469 37.773438 22.652344 C 37.902344 22.429688 38.066406 22.5625 38.214844 22.644531 C 38.53125 22.894531 38.894531 23.117188 39.246094 23.332031 Z M 24.699219 28.839844 C 21.898438 29.03125 19.15625 29.578125 16.449219 30.308594 C 16.234375 30.367188 16.003906 30.429688 16.085938 30.699219 C 16.164062 30.972656 16.386719 30.84375 16.558594 30.800781 C 18.613281 30.277344 20.675781 29.871094 22.765625 29.589844 C 23.445312 29.496094 24.121094 29.398438 24.800781 29.296875 C 25.003906 29.265625 25.296875 29.304688 25.265625 29.011719 C 25.234375 28.710938 24.929688 28.859375 24.75 28.839844 C 24.738281 28.839844 24.71875 28.839844 24.699219 28.839844 Z M 25.316406 30.660156 C 23.949219 30.78125 22.585938 30.933594 21.230469 31.117188 C 21.027344 31.144531 20.753906 31.117188 20.785156 31.417969 C 20.828125 31.753906 21.097656 31.671875 21.320312 31.640625 C 21.492188 31.621094 21.65625 31.589844 21.828125 31.570312 C 23.414062 31.417969 25.003906 31.265625 26.589844 31.117188 C 26.769531 31.09375 27.023438 31.144531 27.003906 30.863281 C 26.984375 30.578125 26.722656 30.671875 26.550781 30.660156 C 26.15625 30.652344 25.738281 30.660156 25.316406 30.660156 Z M 33.464844 31.09375 C 33.464844 31.09375 33.464844 31.105469 33.464844 31.105469 C 32.605469 31.15625 31.753906 31.214844 30.894531 31.277344 C 30.695312 31.289062 30.429688 31.289062 30.480469 31.609375 C 30.523438 31.902344 30.753906 31.875 30.976562 31.855469 C 31.261719 31.832031 31.542969 31.8125 31.835938 31.792969 C 32.613281 31.722656 33.394531 31.640625 34.171875 31.570312 C 34.34375 31.550781 34.476562 31.5 34.484375 31.308594 C 34.484375 31.074219 34.304688 31.105469 34.164062 31.09375 C 33.917969 31.09375 33.6875 31.09375 33.464844 31.09375 Z M 33.960938 29.730469 C 33.828125 29.667969 33.777344 29.621094 33.738281 29.628906 C 32.269531 29.648438 30.804688 29.667969 29.339844 29.699219 C 29.175781 29.699219 28.945312 29.710938 28.996094 29.964844 C 29.035156 30.195312 29.238281 30.136719 29.410156 30.125 C 30.59375 30.074219 31.765625 30.023438 32.949219 29.964844 C 33.261719 29.941406 33.585938 29.964844 33.960938 29.730469 Z M 25.082031 32.785156 C 25.617188 32.703125 26.285156 32.613281 26.964844 32.511719 C 27.113281 32.492188 27.296875 32.492188 27.265625 32.257812 C 27.238281 32.046875 27.054688 32.074219 26.914062 32.085938 C 26.234375 32.136719 25.546875 32.199219 24.871094 32.257812 C 24.699219 32.277344 24.507812 32.308594 24.546875 32.550781 C 24.585938 32.773438 24.757812 32.8125 25.082031 32.785156 Z M 21.746094 32.792969 C 21.441406 32.8125 21.140625 32.824219 20.835938 32.84375 C 20.664062 32.855469 20.542969 32.957031 20.5625 33.136719 C 20.574219 33.308594 20.675781 33.449219 20.847656 33.429688 C 21.414062 33.378906 21.980469 33.308594 22.535156 33.230469 C 22.65625 33.207031 22.796875 33.128906 22.757812 32.957031 C 22.71875 32.785156 22.59375 32.714844 22.414062 32.734375 C 22.191406 32.761719 21.96875 32.773438 21.746094 32.792969 Z M 21.746094 32.792969 "/></g><path style=" stroke:none;fill-rule:nonzero;fill:#163b73;fill-opacity:1;" d="M 25.699219 24.535156 C 28.410156 24.433594 31.097656 24.632812 33.746094 25.28125 C 33.796875 25.292969 33.859375 25.300781 33.910156 25.320312 C 34.164062 25.433594 34.617188 25.382812 34.527344 25.828125 C 34.433594 26.273438 34.03125 26.070312 33.757812 26.03125 C 30.25 25.574219 26.742188 25.078125 23.183594 25.160156 C 22.949219 25.171875 22.617188 25.242188 22.605469 24.878906 C 22.585938 24.472656 22.929688 24.535156 23.191406 24.535156 C 24.03125 24.535156 24.859375 24.535156 25.699219 24.535156 Z M 25.699219 24.535156 "/><path style=" stroke:none;fill-rule:nonzero;fill:#163b73;fill-opacity:1;" d="M 28.066406 22.15625 C 29.511719 22.21875 30.945312 22.390625 32.371094 22.652344 C 32.746094 22.722656 33.101562 22.855469 33.433594 23.058594 C 33.585938 23.148438 33.738281 23.25 33.6875 23.460938 C 33.636719 23.675781 33.445312 23.675781 33.273438 23.683594 C 32.777344 23.714844 32.28125 23.675781 31.804688 23.542969 C 30.300781 23.136719 28.761719 23.109375 27.226562 23.058594 C 27.023438 23.046875 26.800781 23.097656 26.628906 22.9375 C 26.5 22.804688 26.46875 22.644531 26.507812 22.460938 C 26.558594 22.238281 26.742188 22.167969 26.941406 22.167969 C 27.296875 22.148438 27.679688 22.15625 28.066406 22.15625 Z M 28.066406 22.15625 "/><path style=" stroke:none;fill-rule:nonzero;fill:#163b73;fill-opacity:1;" d="M 32.363281 10.632812 C 32.421875 10.632812 32.472656 10.632812 32.535156 10.632812 C 32.675781 10.640625 32.886719 10.570312 32.917969 10.773438 C 32.949219 10.984375 32.738281 10.976562 32.59375 10.996094 C 31.9375 11.128906 31.289062 11.257812 30.632812 11.371094 C 28.824219 11.671875 27.09375 12.25 25.417969 12.976562 C 25.347656 13.007812 25.273438 13.039062 25.203125 13.066406 C 25.0625 13.140625 24.890625 13.21875 24.800781 13.046875 C 24.6875 12.824219 24.929688 12.816406 25.050781 12.753906 C 25.984375 12.320312 26.933594 11.9375 27.914062 11.632812 C 29.378906 11.199219 30.835938 10.734375 32.363281 10.632812 Z M 32.363281 10.632812 "/><path style=" stroke:none;fill-rule:nonzero;fill:#163b73;fill-opacity:1;" d="M 44.523438 14.464844 C 44.382812 15.605469 43.867188 16.484375 43.121094 17.214844 C 42.242188 18.074219 41.179688 18.660156 40.054688 19.15625 C 39.882812 19.226562 39.621094 19.398438 39.511719 19.132812 C 39.410156 18.902344 39.703125 18.839844 39.84375 18.761719 C 40.359375 18.46875 40.886719 18.214844 41.402344 17.929688 C 42.785156 17.164062 43.835938 16.132812 44.089844 14.472656 C 44.121094 14.3125 44.171875 14.160156 44.363281 14.191406 C 44.605469 14.210938 44.523438 14.402344 44.523438 14.464844 Z M 44.523438 14.464844 "/><path style=" stroke:none;fill-rule:nonzero;fill:#163b73;fill-opacity:1;" d="M 23.960938 23.351562 C 24.183594 23.441406 24.648438 23.160156 24.699219 23.542969 C 24.730469 23.773438 24.222656 23.714844 23.972656 23.734375 C 21.867188 23.886719 19.824219 24.300781 17.855469 25.039062 C 17.722656 25.089844 17.550781 25.222656 17.460938 25.007812 C 17.367188 24.796875 17.582031 24.757812 17.710938 24.707031 C 19.703125 23.957031 21.757812 23.410156 23.960938 23.351562 Z M 23.960938 23.351562 "/><path style=" stroke:none;fill-rule:nonzero;fill:#163b73;fill-opacity:1;" d="M 39.671875 12.625 C 39.640625 12.785156 39.492188 12.785156 39.367188 12.816406 C 38.742188 12.957031 38.117188 13.128906 37.476562 13.238281 C 35.890625 13.542969 34.335938 13.976562 32.808594 14.492188 C 32.757812 14.515625 32.695312 14.515625 32.644531 14.535156 C 32.484375 14.585938 32.28125 14.6875 32.222656 14.441406 C 32.171875 14.242188 32.414062 14.230469 32.535156 14.191406 C 34.355469 13.5625 36.195312 13.046875 38.085938 12.683594 C 38.507812 12.601562 38.953125 12.5625 39.378906 12.511719 C 39.5 12.511719 39.621094 12.460938 39.671875 12.625 Z M 39.671875 12.625 "/><path style=" stroke:none;fill-rule:nonzero;fill:#163b73;fill-opacity:1;" d="M 25.46875 11.003906 C 25.566406 10.984375 25.667969 10.976562 25.691406 11.105469 C 25.710938 11.257812 25.589844 11.289062 25.476562 11.328125 C 24.535156 11.683594 23.585938 12.027344 22.65625 12.402344 C 21.757812 12.765625 20.875 13.160156 19.988281 13.542969 C 19.867188 13.59375 19.714844 13.695312 19.632812 13.5625 C 19.53125 13.402344 19.714844 13.339844 19.824219 13.289062 C 21.625 12.492188 23.40625 11.621094 25.304688 11.066406 C 25.367188 11.046875 25.417969 11.027344 25.46875 11.003906 Z M 25.46875 11.003906 "/><path style=" stroke:none;fill-rule:nonzero;fill:#163b73;fill-opacity:1;" d="M 37.457031 14.816406 C 37.4375 15.039062 37.246094 15.070312 37.09375 15.121094 C 36.152344 15.425781 35.214844 15.71875 34.261719 16.011719 C 33.917969 16.121094 33.574219 16.234375 33.230469 16.335938 C 33.089844 16.375 32.917969 16.425781 32.859375 16.210938 C 32.816406 16.050781 32.917969 15.960938 33.058594 15.917969 C 34.40625 15.496094 35.738281 15.082031 37.085938 14.664062 C 37.214844 14.625 37.386719 14.605469 37.457031 14.816406 Z M 37.457031 14.816406 "/><path style=" stroke:none;fill-rule:nonzero;fill:#163b73;fill-opacity:1;" d="M 13.304688 14.6875 C 13.285156 14.847656 13.164062 14.847656 13.050781 14.878906 C 12.738281 14.96875 12.433594 15.050781 12.121094 15.140625 C 10.726562 15.535156 9.574219 16.3125 8.621094 17.394531 C 8.523438 17.515625 8.402344 17.75 8.21875 17.585938 C 8.027344 17.425781 8.277344 17.285156 8.371094 17.171875 C 9.582031 15.828125 11.007812 14.828125 12.859375 14.574219 C 13.03125 14.566406 13.214844 14.453125 13.304688 14.6875 Z M 13.304688 14.6875 "/><path style=" stroke:none;fill-rule:nonzero;fill:#163b73;fill-opacity:1;" d="M 23.425781 16.382812 C 22.847656 16.414062 22.292969 16.285156 21.757812 16.089844 C 21.636719 16.050781 21.472656 16 21.542969 15.820312 C 21.613281 15.636719 21.757812 15.707031 21.878906 15.746094 C 22.402344 15.929688 22.941406 16.03125 23.496094 16.03125 C 24.4375 16.03125 25.195312 15.71875 25.71875 14.910156 C 25.789062 14.808594 25.832031 14.566406 26.042969 14.707031 C 26.214844 14.816406 26.105469 14.980469 26.042969 15.109375 C 25.640625 15.898438 24.921875 16.203125 24.113281 16.34375 C 23.878906 16.382812 23.648438 16.375 23.425781 16.382812 Z M 23.425781 16.382812 "/><path style=" stroke:none;fill-rule:nonzero;fill:#163b73;fill-opacity:1;" d="M 23.484375 17.023438 C 23.261719 17.023438 23.183594 17.023438 23.113281 17.023438 C 22.941406 17.011719 22.726562 17.042969 22.71875 16.808594 C 22.695312 16.546875 22.929688 16.585938 23.089844 16.585938 C 23.636719 16.566406 24.183594 16.527344 24.730469 16.40625 C 25.273438 16.285156 25.769531 16.0625 26.234375 15.757812 C 26.347656 15.6875 26.488281 15.597656 26.589844 15.746094 C 26.660156 15.847656 26.539062 15.960938 26.46875 16.039062 C 25.984375 16.566406 25.335938 16.777344 24.660156 16.910156 C 24.214844 16.980469 23.777344 16.992188 23.484375 17.023438 Z M 23.484375 17.023438 "/><path style=" stroke:none;fill-rule:nonzero;fill:#163b73;fill-opacity:1;" d="M 37.671875 15.96875 C 37.660156 16.140625 37.519531 16.191406 37.40625 16.242188 C 36.46875 16.699219 35.445312 16.949219 34.445312 17.222656 C 34.292969 17.265625 34.171875 17.234375 34.140625 17.070312 C 34.101562 16.910156 34.191406 16.820312 34.335938 16.777344 C 35.324219 16.464844 36.324219 16.152344 37.316406 15.839844 C 37.457031 15.789062 37.621094 15.757812 37.671875 15.96875 Z M 37.671875 15.96875 "/><path style=" stroke:none;fill-rule:nonzero;fill:#163b73;fill-opacity:1;" d="M 34.566406 6.730469 C 34.484375 6.910156 34.34375 6.960938 34.203125 7.023438 C 33.160156 7.476562 32.121094 7.953125 31.140625 8.527344 C 31.007812 8.609375 30.847656 8.699219 30.746094 8.519531 C 30.652344 8.355469 30.816406 8.285156 30.925781 8.214844 C 31.9375 7.617188 32.957031 7.011719 34.089844 6.660156 C 34.242188 6.617188 34.445312 6.507812 34.566406 6.730469 Z M 34.566406 6.730469 "/><path style=" stroke:none;fill-rule:nonzero;fill:#163b73;fill-opacity:1;" d="M 21.058594 25.039062 C 21.179688 25.050781 21.320312 25 21.371094 25.140625 C 21.414062 25.28125 21.300781 25.34375 21.191406 25.382812 C 20.433594 25.695312 19.625 25.828125 18.835938 26.050781 C 18.703125 26.089844 18.601562 26.039062 18.59375 25.898438 C 18.570312 25.765625 18.640625 25.675781 18.765625 25.636719 C 19.53125 25.433594 20.28125 25.128906 21.058594 25.039062 Z M 21.058594 25.039062 "/><path style=" stroke:none;fill-rule:nonzero;fill:#163b73;fill-opacity:1;" d="M 14.074219 21.46875 C 13.941406 21.5 13.878906 21.460938 13.859375 21.378906 C 13.828125 21.257812 13.929688 21.21875 14.011719 21.175781 C 14.8125 20.773438 15.609375 20.378906 16.40625 19.972656 C 16.53125 19.914062 16.628906 19.953125 16.710938 20.042969 C 16.773438 20.117188 16.730469 20.207031 16.671875 20.238281 C 15.8125 20.710938 14.933594 21.105469 14.074219 21.46875 Z M 14.074219 21.46875 "/><path style=" stroke:none;fill-rule:nonzero;fill:#163b73;fill-opacity:1;" d="M 39.753906 16.921875 C 39.753906 17.042969 39.691406 17.113281 39.613281 17.171875 C 39.097656 17.515625 38.570312 17.859375 38.054688 18.195312 C 37.933594 18.273438 37.78125 18.375 37.660156 18.183594 C 37.570312 18.03125 37.710938 17.929688 37.8125 17.859375 C 38.335938 17.488281 38.863281 17.132812 39.398438 16.769531 C 39.589844 16.648438 39.703125 16.71875 39.753906 16.921875 Z M 39.753906 16.921875 "/><path style=" stroke:none;fill-rule:nonzero;fill:#163b73;fill-opacity:1;" d="M 33.554688 6.03125 C 33.546875 6.171875 33.445312 6.234375 33.351562 6.285156 C 32.796875 6.597656 32.230469 6.902344 31.664062 7.203125 C 31.542969 7.265625 31.402344 7.304688 31.3125 7.164062 C 31.238281 7.042969 31.320312 6.941406 31.421875 6.890625 C 32.007812 6.558594 32.585938 6.191406 33.230469 5.960938 C 33.34375 5.898438 33.484375 5.847656 33.554688 6.03125 Z M 33.554688 6.03125 "/><path style=" stroke:none;fill-rule:nonzero;fill:#163b73;fill-opacity:1;" d="M 41.351562 16.789062 C 41.320312 16.839844 41.300781 16.898438 41.257812 16.941406 C 40.773438 17.425781 40.257812 17.882812 39.640625 18.195312 C 39.539062 18.246094 39.429688 18.304688 39.347656 18.152344 C 39.289062 18.042969 39.378906 17.972656 39.449219 17.921875 C 39.964844 17.507812 40.492188 17.09375 41.015625 16.679688 C 41.097656 16.617188 41.179688 16.566406 41.269531 16.648438 C 41.300781 16.679688 41.320312 16.738281 41.351562 16.789062 Z M 41.351562 16.789062 "/><path style=" stroke:none;fill-rule:nonzero;fill:#163b73;fill-opacity:1;" d="M 21.433594 9.730469 C 21.421875 9.894531 21.320312 9.953125 21.230469 10.015625 C 20.746094 10.308594 20.25 10.589844 19.765625 10.875 C 19.644531 10.945312 19.511719 11.003906 19.421875 10.855469 C 19.328125 10.710938 19.421875 10.601562 19.542969 10.519531 C 20.039062 10.207031 20.523438 9.875 21.070312 9.660156 C 21.210938 9.609375 21.363281 9.558594 21.433594 9.730469 Z M 21.433594 9.730469 "/><path style=" stroke:none;fill-rule:nonzero;fill:#163b73;fill-opacity:1;" d="M 10.988281 16.820312 C 10.917969 16.777344 10.847656 16.757812 10.808594 16.699219 C 10.734375 16.605469 10.777344 16.507812 10.878906 16.464844 C 11.523438 16.164062 12.183594 15.859375 12.839844 15.566406 C 12.921875 15.523438 13.042969 15.523438 13.070312 15.648438 C 13.082031 15.707031 13.042969 15.820312 13 15.839844 C 12.332031 16.171875 11.675781 16.496094 10.988281 16.820312 Z M 10.988281 16.820312 "/><path style=" stroke:none;fill-rule:nonzero;fill:#163b73;fill-opacity:1;" d="M 39.855469 7.425781 C 39.21875 7.132812 38.773438 6.679688 38.238281 6.355469 C 38.144531 6.304688 38.09375 6.214844 38.144531 6.121094 C 38.175781 6.070312 38.277344 6.050781 38.335938 6.050781 C 38.742188 6.070312 39.742188 6.953125 39.855469 7.425781 Z M 39.855469 7.425781 "/><path style=" stroke:none;fill-rule:nonzero;fill:#163b73;fill-opacity:1;" d="M 22.796875 10.410156 C 22.292969 10.914062 21.644531 11.167969 21.039062 11.492188 C 20.9375 11.542969 20.847656 11.511719 20.796875 11.421875 C 20.734375 11.308594 20.804688 11.25 20.898438 11.199219 C 21.503906 10.875 22.109375 10.550781 22.796875 10.410156 Z M 22.796875 10.410156 "/><path style=" stroke:none;fill-rule:nonzero;fill:#163b73;fill-opacity:1;" d="M 38.84375 7.769531 C 38.488281 7.761719 38.347656 7.4375 38.105469 7.296875 C 37.78125 7.101562 37.46875 6.890625 37.144531 6.6875 C 37.0625 6.636719 36.960938 6.585938 37.011719 6.476562 C 37.035156 6.4375 37.132812 6.40625 37.195312 6.40625 C 37.648438 6.425781 38.679688 7.273438 38.84375 7.769531 Z M 38.84375 7.769531 "/><path style=" stroke:none;fill-rule:nonzero;fill:#163b73;fill-opacity:1;" d="M 36.367188 17.304688 C 36.488281 17.292969 36.597656 17.304688 36.640625 17.445312 C 36.679688 17.585938 36.589844 17.660156 36.476562 17.699219 C 36.175781 17.800781 35.871094 17.890625 35.566406 17.980469 C 35.40625 18.03125 35.253906 17.992188 35.214844 17.808594 C 35.183594 17.660156 35.304688 17.566406 35.4375 17.539062 C 35.738281 17.445312 36.054688 17.375 36.367188 17.304688 Z M 36.367188 17.304688 "/><path style=" stroke:none;fill-rule:nonzero;fill:#163b73;fill-opacity:1;" d="M 38.359375 27.324219 C 38.054688 27.203125 37.773438 27.101562 37.5 26.980469 C 37.40625 26.941406 37.335938 26.878906 37.378906 26.769531 C 37.417969 26.667969 37.519531 26.648438 37.609375 26.675781 C 37.894531 26.789062 38.175781 26.898438 38.449219 27.019531 C 38.53125 27.0625 38.609375 27.152344 38.539062 27.242188 C 38.507812 27.292969 38.417969 27.304688 38.359375 27.324219 Z M 38.359375 27.324219 "/></g><mask id="c79ed188d3"><g filter="url(#5be57c2f6b)"><rect x="0" width="375" y="0" height="374.999991" style="fill:#000000;fill-opacity:0.48;stroke:none;"/></g></mask></g></g></svg>